<svg xmlns="http://www.w3.org/2000/svg" xmlns:xlink="http://www.w3.org/1999/xlink" viewBox="0 0 1108 689"><defs><style>.cls-1{fill:none;}.cls-17,.cls-2{fill:#fff;}.cls-3{isolation:isolate;}.cls-4{clip-path:url(#clip-path);}.cls-5{opacity:0.59;mix-blend-mode:overlay;fill:url(#Unnamed_Pattern_4);}.cls-6{fill:#e5eba4;}.cls-10,.cls-11,.cls-12,.cls-13,.cls-14,.cls-15,.cls-16,.cls-17,.cls-18,.cls-19,.cls-20,.cls-22,.cls-6,.cls-7,.cls-8,.cls-9{fill-rule:evenodd;}.cls-7{fill:#cfba84;}.cls-8{fill:#5c7599;}.cls-9{fill:#00246b;}.cls-10{fill:#039;}.cls-11{fill:#002369;}.cls-12{fill:#256cfa;}.cls-13{fill:#134cbf;}.cls-14{fill:#bf9473;}.cls-15{fill:#a67258;}.cls-16{fill:#11153b;}.cls-18{fill:#a3bcc7;}.cls-19{fill:#eda456;}.cls-20{fill:#cc7a29;}.cls-21,.cls-22{fill:#0cf;}</style><clipPath id="clip-path"><rect class="cls-1" x="-985" y="-1308.74" width="1921.41" height="1079.74"/></clipPath><pattern id="Unnamed_Pattern_4" data-name="Unnamed Pattern 4" width="7.83" height="10" patternTransform="translate(91.29 402.52) rotate(-179.26) scale(0.93)" patternUnits="userSpaceOnUse" viewBox="0 0 7.83 10"><rect class="cls-1" width="7.83" height="10"/><circle class="cls-2" cx="5.42" cy="11" r="1.5"/><circle class="cls-2" cx="1.5" cy="6" r="1.5"/><circle class="cls-2" cx="5.42" cy="1" r="1.5"/></pattern></defs><g class="cls-3"><g id="Layer_1" data-name="Layer 1"><g class="cls-4"><path class="cls-5" d="M908.1-770.39C803.55-760,703.19-717.64,625.52-652.44c-63.22,53.08-113,121.16-186.73,161.08C266-397.87,67.33-493.25-115.44-487.17-604-470.91-786.75-89.82-786.75-89.82L1001,46.35s14.45-51.49,35.8-127.61v-687.4A574.34,574.34,0,0,0,908.1-770.39Z"/></g><polygon class="cls-6" points="643.1 298.65 696.49 282.74 692.19 361.35 634.57 391.37 643.1 298.65"/><polygon class="cls-7" points="694.26 283.39 696.49 282.74 692.26 359.84 679.92 367.71 634.57 391.37 640.41 328.11 679.16 322.96 694.26 283.39"/><path class="cls-8" d="M676,288.84l20.51-38.52L687.43,278l48.41-18.14-1.31,9.94,24.61-4.33q12.11-9.06,24.22-18.14c33.9,4.19,66.75,17.55,98.94,36.71,27.2,20.24,37.87,36.64,38,50.56-5.71,15.94-14,23.32-25.5,20.27-1.87,19.75-10.2,26.21-22.44,24.64-3,12.07-10.31,15.68-20.74,13.39-11.88,24.44-28.46,24.54-48.41,6.92-3.08,11.48-10.43,16.4-19.85,18.14-3.58,13.42-11.85,22.11-24.65,26.35-3.51,14.1-13.32,23.72-31.27,27.49-20.68,17.22-41.09,20.6-61.17,9.65l-38.89,89.4,23.33-74.71-51.42-42.78-11.65,23.33L601.45,440,588.2,416.79l16.73-7.51,24.19-2.59,5.45-15.32,57.62-30,4.3-78.61Z"/><path class="cls-9" d="M496.9,443.83l33.38,86.71,17,3.58-5.61,9.51L552,538.45c23.43,11.35,49.55,10.79,78.2-.89,4.6-5.18,9.19-10.37,13.82-15.55q17.72-3.88,35.41-7.78c23.3-17.29,44.43-35.66,59.62-57L632.53,397.53l-109-.78Z"/><path class="cls-10" d="M137.86,224.63l266.6-104.1-11.69-13-28.94,8.63,6.92-5.18c-39.7-76.31-97.43-99.74-172.84-71.26L194.46,35c-8.3-.39-15,2.86-20.74,8.2l9.09.46-4.33,6c-65.86,38.94-68.09,101.44-40.62,174.93Z"/><path class="cls-10" d="M162.5,346.22c-1.51-16.34-14-20.37-15.55-32.84,54.37-28.41,123.91-38.55,190.1-52.69,7.48,3.48,15,6.92,22.48,10.37,32.06,2.66,59.24,16.34,82.08,39.73,34.22-3.87,67.83-6.82,93.33,2.59q54-8.61,108-17.26c3.6,53.28-3.58,85-13.82,110.57-8.07.85-16.15,1.74-24.19,2.59q-33.72,15.11-67.4,30.25-20.34,2.16-40.63,4.3c12.7,20.8,26.35,40.12,34.59,94.42,25.63,75.49,38,116,47.52,150.75H200.53c-25.69-30.09-31.63-63.94-25.07-99.77C136,541.43,115,493.5,119.31,445.7c-19.85-46.1-3.77-78.71,43.19-99.48Z"/><path class="cls-11" d="M476.1,657.05a118.34,118.34,0,0,1-8.57,8.44q-2.22,2-4.41,3.64c-19.41,15-36.32,14.3-52.13,6.59q12.64-11.93,24.06-24.09c1-1,1.9-2,2.83-3,10.82-11.69,20.73-23.49,29.66-35.27q3.75-4.94,7.25-9.86C499.3,569,515.18,535,520.14,504.2h0c-31.57,29.43-61.73,68.74-114.37,75.17,9.39-6.6,87.13-59.91,88.14-62.93-45.74,26.35-103.63,79.14-137.2,79,30.85-12.56,69.34-48.52,89.88-76.83Q427.23,536,406.54,552q-2.42,1.89-4.86,3.75A821.81,821.81,0,0,1,299,622.34C327.83,570.52,366.51,518.7,409.4,466.9q12.72-15.37,25.9-30.75C430.82,426,428.41,415,426,404c-1.86-8.55-3.71-17.1-6.52-25.25a89.49,89.49,0,0,0-3.84-9.48c-7.41-15.53-20.16-28.87-45.9-36.85h0a167.45,167.45,0,0,0-30.4-6.08c1.9,3.18,3.77,6.37,5.64,9.55-68.81-5.88-99.63-21-197.5-19.79h0a5.58,5.58,0,0,0,.18.58c.1.35.22.69.34,1s.23.6.35.89c.2.47.41.94.65,1.39.14.29.29.57.45.85.27.49.56,1,.86,1.45.52.81,1.07,1.61,1.64,2.39l.59.79c.58.78,1.19,1.56,1.79,2.36l.4.53c.23.28.45.58.66.87q.66.87,1.29,1.77l0,0c.22.3.43.6.62.91s.39.58.58.88a.16.16,0,0,1,0,.07c.41.64.8,1.31,1.17,2a24,24,0,0,1,1.06,2.16c.17.37.33.75.47,1.14s.28.73.41,1.1a1.06,1.06,0,0,1,.06.19s0,0,0,.06c.12.35.24.72.34,1.09s.24.85.34,1.3a23.48,23.48,0,0,1,.46,2.36s0,.07,0,.11l.06.44,0,.19c0,.39.1.79.13,1.19-.79.35-1.57.7-2.34,1.06s-1.54.71-2.3,1.08l-2.23,1.1c-.74.37-1.47.74-2.19,1.12-1,.5-1.91,1-2.84,1.52l-2.74,1.56-1.33.79h0l-.16.09-1.45.9-1.43.91-1.4.92c-.46.31-.92.62-1.37.94s-.9.62-1.34.94c-.91.65-1.8,1.31-2.66,2s-1.49,1.17-2.21,1.76l-.18.15-1.19,1c-.39.33-.77.67-1.15,1-.76.67-1.49,1.35-2.2,2-.37.35-.73.71-1.09,1.07l-1,1.05h0c-.69.72-1.36,1.45-2,2.18s-1.06,1.21-1.57,1.83v0c-.28.34-.55.68-.82,1l-.74,1c-.19.24-.37.49-.55.74-.62.84-1.21,1.7-1.78,2.56-.46.71-.91,1.43-1.34,2.15s-.85,1.47-1.25,2.22l-.59,1.12c-.19.38-.38.76-.56,1.14s-.36.76-.53,1.14c-.6,1.32-1.14,2.66-1.63,4q-.2.51-.36,1l-.27.83c-.13.4-.25.81-.37,1.21-.28.93-.53,1.88-.75,2.83-.1.38-.18.76-.26,1.15-.2.91-.37,1.83-.52,2.75-.05.3-.1.6-.14.9s-.12.82-.17,1.23c-.09.7-.16,1.41-.23,2.12a2,2,0,0,0,0,.34L111.1,406c0,.43,0,.85-.07,1.28a63.67,63.67,0,0,0,.08,6.61c0,.46.06.92.1,1.38,0,.19,0,.37,0,.56s0,.1,0,.15c0,.38.07.76.11,1.14,0,.23.05.46.08.69s.06.59.1.88c.06.53.13,1.06.22,1.59a1.1,1.1,0,0,0,0,.18c.08.54.17,1.08.26,1.62.06.37.13.74.2,1.11a94.59,94.59,0,0,0,3.18,12.27q.23.72.48,1.44c.18.52.36,1.05.55,1.58s.49,1.33.75,2c.64,1.7,1.33,3.41,2.08,5.15v0c0,.52-.09,1-.13,1.54s-.08,1-.11,1.54-.07,1-.09,1.55-.06,1-.08,1.54,0,.75,0,1.12,0,.66,0,1,0,.74,0,1.11c0,.93,0,1.87,0,2.8,0,1.37,0,2.75.06,4.12l0,.9c0,.43,0,.86.05,1.29s0,1,.08,1.54c0,.12,0,.24,0,.36,0,.31,0,.61,0,.92l.09,1.27c0,.58.08,1.16.13,1.73,0,.38.07.76.11,1.14.05.58.11,1.17.17,1.75q.77,7.27,2.27,14.54c.12.61.25,1.22.38,1.82s.27,1.21.41,1.82c.29,1.28.6,2.56.93,3.85.17.68.35,1.37.54,2.05s.4,1.49.61,2.23q1.28,4.45,2.8,8.91.39,1.15.81,2.31a.08.08,0,0,0,0,.05c.27.76.54,1.51.83,2.27s.67,1.79,1,2.68l.66,1.68c.41,1,.82,2,1.25,3s.87,2.06,1.33,3.09c.74,1.7,1.52,3.41,2.32,5.11.42.91.86,1.81,1.3,2.72.31.64.63,1.28.95,1.91q.79,1.59,1.62,3.18c.42.82.85,1.63,1.29,2.45l1.05,1.95c.28.51.57,1,.85,1.54q3.42,6.15,7.29,12.3c.4.64.81,1.28,1.22,1.92q4,6.21,8.4,12.42l1.45,2q6.69,9.24,14.31,18.46c-.18,1-.35,1.94-.5,2.91-.13.74-.24,1.49-.35,2.23-.05.31-.1.62-.14.92-.13.88-.24,1.76-.35,2.63s-.19,1.53-.27,2.29c-.06.45-.1.9-.14,1.35-.07.62-.13,1.23-.17,1.83,0,.17,0,.34,0,.5-.07.85-.14,1.7-.19,2.54s-.11,1.72-.15,2.57c0,.55-.05,1.1-.06,1.64s0,1.05-.05,1.58c0,.1,0,.21,0,.31,0,.8,0,1.6,0,2.39v.83c0,.66,0,1.31,0,2s0,1.58.08,2.37.07,1.59.12,2.38v.09c.05.8.1,1.6.17,2.4s.11,1.36.18,2q.23,2.26.54,4.53c.07.56.15,1.11.24,1.67a.31.31,0,0,0,0,.08c.09.62.19,1.25.3,1.87s.22,1.27.34,1.91.3,1.54.47,2.3.27,1.25.42,1.88c.08.36.17.73.26,1.09.15.63.31,1.26.47,1.89s.37,1.38.57,2.07q.59,2.07,1.26,4.14l.57,1.67c.21.62.43,1.24.66,1.85.38,1,.77,2.06,1.19,3.08l.4,1c.28.7.58,1.38.88,2.07l.62,1.38c.25.55.51,1.09.77,1.64.57,1.21,1.18,2.41,1.8,3.61.2.37.39.74.59,1.1s.45.85.69,1.27.63,1.12,1,1.68.51.88.77,1.32c.71,1.18,1.44,2.36,2.2,3.54.22.35.45.69.68,1s.49.75.75,1.13.55.81.84,1.22l.15.22c.77,1.11,1.57,2.22,2.4,3.32.4.54.8,1.07,1.21,1.6q1.89,2.45,3.95,4.85H467.86q6.34-5.65,12-11.24,2.94-2.89,5.69-5.79c18.45-19.35,31-38.21,40.1-57.61C513.8,632.05,498.35,646.88,476.1,657.05ZM399.43,122.49l-12-6.12L307.12,143.7l-35.7,5.91-69.34,11.47c-.52-1.09-1-2.17-1.54-3.25C177,107.43,176.83,67.28,194.43,35a27.41,27.41,0,0,0-4.08.12,2.73,2.73,0,0,0-.4.05c-.33,0-.65.07-1,.13s-.44.07-.65.12a1.38,1.38,0,0,0-.2,0l-.09,0-.9.19-.24.06c-.33.08-.66.16-1,.26s-.72.21-1.07.33-.71.25-1,.38-.82.32-1.22.5-.8.37-1.19.57-.78.4-1.17.62-.76.44-1.14.67-.75.48-1.11.73h0a35.47,35.47,0,0,0-4.24,3.42l9.09.46-4.33,6q-6.33,3.75-11.89,7.78c-.57.41-1.13.82-1.68,1.24q-2.32,1.72-4.52,3.53c-.47.37-.93.76-1.38,1.14q-3.57,3-6.77,6.15c-.39.37-.77.75-1.14,1.13s-.82.83-1.22,1.25-1,1.07-1.51,1.6l-.27.29c-.48.53-1,1.07-1.44,1.61q-1.56,1.77-3,3.57c-.49.6-1,1.21-1.43,1.82s-.92,1.21-1.37,1.83-.9,1.23-1.33,1.85-.85,1.23-1.27,1.85-.65,1-1,1.48c-.2.3-.39.6-.57.91-.3.47-.6,1-.88,1.43-.39.64-.76,1.28-1.13,1.92s-.67,1.18-1,1.78c-.46.84-.9,1.69-1.33,2.54-.27.52-.53,1-.78,1.57s-.63,1.33-.94,2c-.9,2-1.74,4-2.5,6l0,.07a1,1,0,0,0-.06.16l-.09.24c-.24.65-.48,1.3-.7,2s-.35,1-.52,1.53-.31.94-.45,1.41c-.38,1.2-.74,2.41-1.06,3.63-.12.4-.22.79-.32,1.19-.2.75-.39,1.51-.57,2.27s-.3,1.27-.43,1.91-.23,1.06-.33,1.59-.17.8-.24,1.21c-.05.25-.1.5-.14.75q-.15.77-.27,1.53a1.55,1.55,0,0,0,0,.21c-.1.6-.2,1.2-.29,1.8,0,.3-.09.61-.13.91-.12.82-.22,1.65-.33,2.48l-.18,1.6-.12,1.21c-.08.85-.16,1.71-.22,2.58-.06.69-.11,1.39-.15,2.09v.07c0,.68-.08,1.36-.1,2,0,.42,0,.85-.05,1.28,0,.64,0,1.28,0,1.93,0,.88,0,1.76,0,2.65v0c0,.75,0,1.49,0,2.24s0,1.38,0,2.08c0,.94.06,1.89.11,2.84.06,1.21.13,2.42.22,3.65,0,.44.06.88.1,1.32.06.78.13,1.56.21,2.35,0,.62.12,1.23.18,1.85.11,1.08.24,2.17.38,3.26.1.82.21,1.65.32,2.48.08.58.16,1.16.25,1.74q.27,1.88.6,3.78.48,2.87,1.05,5.78c.24,1.2.48,2.41.74,3.62q1.06,4.92,2.36,10c.33,1.3.68,2.61,1,3.92s.75,2.67,1.14,4c.19.67.39,1.33.59,2q.6,2,1.23,4,.75,2.4,1.56,4.83c.43,1.31.87,2.62,1.33,3.94s1,2.92,1.55,4.39,1,2.83,1.56,4.25l20.29-7.92,3.11-1.21h0l4.87-1.9,1.54-.6.05,0,34-13.28h0l12.36-4.82h0l5.88-2.3h0l2.12-.83,32.36-12.63,7.07-2.77,47.88-18.7h0l9.26-3.62.22-.08,80.48-31.42ZM559,661.93A48.62,48.62,0,0,1,544.91,689h14.31A226.82,226.82,0,0,0,559,661.93Zm-46,22.84a48.52,48.52,0,0,1-6,4.23h18.58c8.56-16.2,14.17-33.07,15.62-51C538.57,648.62,528.84,671.71,513,684.77ZM193.54,297.47l-33.27,12.79c11.55-.88,23.1-1.8,34.62-2.69Z"/><path class="cls-12" d="M441.61,310.79c34.22-3.87,67.83-6.82,93.33,2.59q54-8.61,108-17.26c3.6,53.28-3.58,85-13.82,110.57-8.07.85-16.15,1.74-24.19,2.59q-33.72,15.11-67.4,30.25-20.34,2.16-40.63,4.3L442,457.67q-45.78,12.94-91.59,25.92c-36.69,21.06-77.64,40.85-133.92,56.14-25.31,12.33-35.38,30-41.06,49.24-39.48-47.8-60.45-95.6-56.15-143.4-19.85-46.1-3.77-78.58,43.19-99.35,50.31-22.05,93.66-9.45,137,3.45,15.19-4.4,30.65-10,44-6,30.91-13.52,62-26.84,98.09-32.84Z"/><path class="cls-13" d="M643.76,331.72c-.92,32.87-6.93,55.64-14.64,75-8.07.85-16.15,1.74-24.19,2.59q-33.72,15.11-67.4,30.25-20.34,2.16-40.63,4.3L442,457.67q-45.78,12.94-91.59,25.92c-36.69,21.06-77.64,40.85-133.92,56.14-25.31,12.33-35.38,30-41.06,49.24-39.48-47.8-60.45-95.6-56.15-143.4-19.85-46.1-3.77-78.58,43.19-99.35-6,28.58-5.22,57.94,8.4,88.85,27.86-34.39,72.85-59,125-79.43-32,21.16-47.15,42.91-61.63,64.66,41.25-15.84,76.83-49.7,115.91-67.71-5.22,4.59-55.69,58.59-62.51,88.55,88-56.2,174.19-100.66,255.28-112.86q-4.14,9.54-8.27,19.09Z"/><path class="cls-13" d="M220.29,41.7c64.19,1.44,108.16,24.47,137.63,63C331.21,33.23,272.34,32.71,220.29,41.7Z"/><path class="cls-14" d="M158.14,216.73l31.57,52,5.18,38.87c51.72-3.31,90.87,27.07,130.48,21.17l-3-13.82c19.49-124.14-113.61-205.25-164.21-98.19Z"/><path class="cls-15" d="M158.14,216.73l31.57,52,5.18,38.87c50.11-3.21,88.47,25.23,126.84,21.59l-70-50.79,32.19,33.73-21.27-.85L161.94,209.35c-1.31,2.36-2.59,4.79-3.8,7.38Z"/><path class="cls-6" d="M200.56,199.24c60,22.24,101.14,53.12,121.82,115.68q25-9.5,50.1-19c11.22-58.92,12-105.41-19.38-155.11-48.4,18.86-77.19,29.13-126,48Z"/><path class="cls-7" d="M191.67,180.38c19.17,0,40.27,18.43,47.19,41.14s-3,41.14-22.18,41.14-40.27-18.44-47.16-41.14,3-41.14,22.15-41.14Z"/><path class="cls-6" d="M185.18,182.11c19.13,0,40.26,18.44,47.15,41.15s-3,41.11-22.15,41.11S169.92,246,163,223.26s3-41.15,22.19-41.15Z"/><path class="cls-16" d="M419.5,378.75c-65.49,36.69-169.27,104.41-214,150.86q-2.38,2.46-4.53,4.85c-8.08,9-13.66,17-16,23.7.19-7.9,3.35-17.6,8.54-28.32q1.2-2.48,2.54-5c24.27-46.14,81.77-108.19,104.83-129.48-32.95,26.44-116.21,54-118.47,100.72-25.33-12.27-53.26-53.76-29.11-122-12.24,15.45-21.92,33.88-27.79,56.85-10.82-25.75-6.77-44.79,2.14-61.64h0v0l0,0a166.63,166.63,0,0,1,10.85-17.27q-29,38.6-57.85,77.23L77.77,433l3.09-3.39q13.86-15.22,27.72-30.43c-4.3,17.71-.59,38.68,10.18,56.85a222.63,222.63,0,0,0-.8,31.65q.21,4.2.6,8.22c4.29,44.77,24.65,73.83,52.54,98a139,139,0,0,0-1.89,20.21c0,1.2,0,2.38,0,3.55.27,24.38,8.05,42.3,17.79,59q1.11,1.92,2.27,3.82c1.72,2.85,3.49,5.68,5.27,8.51h30.85q7.22-13.79,14.66-27.09,1.52-2.7,3-5.39c37.71-66.51,79.57-124.2,121.2-176.85C385.1,453.34,405.86,428.28,426,404c13.77-16.59,27.26-32.81,40.3-48.82C456.26,359.06,439.7,367.43,419.5,378.75ZM48,670.26l-4,3.09v10.17l4-4,39.14-39.13Zm51.07-30.34-7.62,8,12.83-6.3Zm8.23-109.38L94.27,554l23.47-20ZM92.54,572.63,65.2,597.37l35.61-13.88ZM237.13,396.42v4.79L251.44,389ZM413,443.73,391.9,471.85l-48.84,65.22L404,468.43l24.6-27.72ZM568.18,584l12.11-6.5,4.76-21.16Zm-258.7-426.4h0l-.5.1h0l-48.17,9.46,10.67-17.58L305,94.36,247,144.43s-24.78,9.25-46.5,13.4c-11.72,2.23-22.56,3-28.13,0C156.51,149.3,145.5,88,178.48,49.7,157.27,62.47,138.85,81.12,128.17,106l0,.07a1,1,0,0,0-.06.16c-10.67,25-13.55,56.19-3.65,94l-31.7,54.23,39.13-47.2,9.08-11-7.52,15.79-5.08,10.68,6.41-6.74,0,0,3.09,8.66,20.29-7.92,3.11-1.21h0l4.87-1.9,1.54-.6.05,0,34-13.28h0l12.36-4.82h0l5.88-2.3h0l2.12-.83-.84,2-2.47,5.87-2.48,5.9-17.4,41.3h0l-3.73,8.85L193.36,260l-3.65,8.66L195.3,261,198,257.3l4.8-6.64,26.14-36.15,1.8-2.49,2.48-3.43,21.32-29.49,7.08-2.76,48-18.73ZM355.82,653.8l30-45.08-49.91,10.14-56,70.14h99.86C415,603.35,498.51,577.35,516.89,513.84,485.38,582.77,406.75,601.5,355.82,653.8Zm415-306.27-36.11,8-.09,0-6,1.31-22,44.06q8.52-23,17-46l-3.7-.77-27.06-5.63h0l-43.15,26L656,326h0l2.4-18.42-7.33,19.08-8.27,21.5v.05l-5.6,14.55h0v0h0l-13.32,34.64-1.49,3.87-20-1.28-64.88,39.47-40.63,4.3a55.52,55.52,0,0,1,4.7,7.63,0,0,0,0,0,0,0,47.62,47.62,0,0,1,5.08,17.77c.84,9.87-1.33,20.09-5.85,30.6l10.85-17.62,3.41-5.54h0l13.5-21.94L549,446.48l-6.07,33,18.25-41.24,33.91-9.39,14.69-4.06-8.79,30-17.69,60.33,24-55.05,13.31-30.48,35.61,17.81A28.35,28.35,0,0,1,671,431.29c19.79,1.15,32.36,10,43.42,20.41a121.33,121.33,0,0,0-7-12.19h0c-6.87-10.37-15.8-19.49-29-26,4.07-6.46,8.66-12.4,19.1-13,21.75,4.26,35.31,13.65,46.89,24.31-5.71-14.18-13.06-27.95-26.06-40.36q5.48-7.19,10.87-14.33c17,6.39,23.26,16.3,26.05,27.33q7.75-19.65,15.51-39.34L782.57,328Z"/><path class="cls-17" d="M676,288.84l20.51-38.52L687.43,278l48.41-18.14-1.31,9.94,24.61-4.33q12.11-9.06,24.22-18.14c33.9,4.19,66.75,17.55,98.94,36.71,27.2,20.24,37.87,36.64,38,50.56-5.71,15.94-14,23.32-25.5,20.27-1.87,19.75-10.2,26.21-22.44,24.64-3,12.07-10.31,15.68-20.74,13.39-11.88,24.44-28.46,24.54-48.41,6.92-1.21-5-2.43-9.94-3.67-14.9-4.86-5.74-11.69-8.56-21.17-7.35,1.61-5.05,3.18-10.1,4.76-15.12-17.4-7-35.28-10.7-54.45-5.61l-22,44.06,17.73-48-32.2,8.43,4.3-78.61Z"/><path class="cls-18" d="M918.69,338.68c-5.61,13.09-13.45,19-23.89,16.17-1.87,19.75-10.2,26.21-22.44,24.64-3,12.07-10.31,15.68-20.74,13.39-11.88,24.44-28.46,24.54-48.41,6.92-1.21-5-2.43-9.94-3.67-14.9-4.86-5.74-11.69-8.56-21.17-7.35,1.61-5.05,3.18-10.1,4.76-15.12-17.4-7-35.28-10.7-54.45-5.61l-22,44.06,17.73-48-32.2,8.43,2.86-51.84,14.08-5.22-3.45,20.84c26.94-8.8,49.85-9.45,69.87-4.33l26.05-31.27c59.27.79,91.63,22.31,117.09,49.15Z"/><polygon class="cls-18" points="820.74 222.04 791.76 273.45 844.92 271.71 810.79 259.61 820.74 222.04"/><polygon class="cls-19" points="901.4 255.84 1108 146.75 1108 230.45 906.64 305.69 906.62 305.7 898.72 300.01 858.42 270.99 886.73 258.43 897.95 230.8 888.44 270.53 901.4 255.84"/><path class="cls-20" d="M1066.2,222l10.41-35.17-57.73,56.43-125.47,49.6L903,294l-3.22,4.53-1,1.46-9.58,13.48-26.56,37.39,35-31.41,11.77-10.57h0l198.66-70V204.72Z"/><path class="cls-21" d="M245,689c30.26-46.3,19.23-35.14-40.83-13.71-35.77,12.76-69.27,24.57-83-5.19-12.18-26.31,18.18-41.27,49.75-56.82,27.4-13.45,55.85-27.46,52.34-47.7-4.76-27.53-35-39.68-65.93-52.12-29-11.68-58.74-23.63-71.7-49C73.11,440,67.27,410.63,68.05,381.53c.79-28.94,8.14-57.68,22-81.27,12.67-21.52,39.48-19.36,66.29-17.19,12.44,1,24.88,2,35.28.49l1.35,9.15c-11.46,1.68-24.19-6.3-37.12-7.35-24-1.93-48.11,3.09-57.82,19.59C85,327.13,73.27,353,72.52,380.44,71.76,408,82,437.1,93.85,460.23c11.39,22.34,37,38.58,64.48,49.64,33.38,13.42,68.36,21.52,74,54.1,4.66,27-30,37.37-60.44,52.33-27.44,13.48-50.77,31.66-42.37,49.8,10.21,22.08,40.95,17,72.59,5.68C276.64,645.2,293.77,630,255.24,689Z"/><path class="cls-22" d="M227.87,577.42a12.58,12.58,0,1,0-12.57-12.56,12.59,12.59,0,0,0,12.57,12.56Z"/><path class="cls-22" d="M523.52,263.64A12.58,12.58,0,1,0,511,251.05a12.62,12.62,0,0,0,12.57,12.59Z"/><path class="cls-22" d="M556.1,244.55a5.22,5.22,0,1,0-5.22-5.22,5.22,5.22,0,0,0,5.22,5.22Z"/><path class="cls-22" d="M629.91,189.43a5.22,5.22,0,1,0-5.22-5.22,5.22,5.22,0,0,0,5.22,5.22Z"/><path class="cls-22" d="M401.54,555.74a5.2,5.2,0,1,0-5.22-5.22,5.21,5.21,0,0,0,5.22,5.22Z"/><path class="cls-21" d="M495.59,689c-18.08-16.2-39.58-20.47-57.23-34.51-11-8.8-15.62-18.54-6.57-29.89,33.44-42,149.71-19.06,245.6-.1,67.08,13.26,123.75,24.41,129.79,11.35,8.5-18.43-46.76-28.16-57.59-30.72-20.28-4.76-40.1-9.43-50.9-16.61-9.45-6.27-12.73-14.08-5.78-24.51,15.79-23.69,46-3.71,76,16.2,71.57,47.38,85.29,10.93,37.74-3.21-21.07-6.24-45.29-7.48-42.43-25,3.67-22.63,48.07-23.85,102.45-25.32,70-1.91,157.39-4.3,187.38-50.23,9.42-14.47,7.35-30-6.66-39.18-18.54-12.07-53.1-21.72-85.22-30.9-30.36-8.7-68.13-15.23-88.11-26.68,7.94-.36,13.68-2.75,16.21-8.23a327.84,327.84,0,0,0,73.11,31c32.79,9.39,65.6,18.77,85.36,31.63,18.67,12.2,26.22,27.2,13.06,47.38-32.65,50-124.31,46.58-196.41,48.55-50.18,1.38-89.59,8.37-92,23.46-1.54,9.51,16.9,15,34.2,20.14,10.4,3.09,20.41,6.07,26.87,10.24C853.16,596,846.17,635.1,766,582.05c-26.25-17.36-54.74-28.91-65.44-12.9-9.84,14.77,12.87,24.55,50.21,32,25.4,6.53,80.17,5.18,64.75,38.58-9.06,19.69-70.29,2.2-141.24-11.84-93.4-18.44-205.34-35.2-235.3,2.36-4.69,5.91-5.08,16,1.64,21.39,20.81,16.57,58.25,20,77.84,37.4Z"/><path class="cls-22" d="M107.3,272.31a5.22,5.22,0,1,0-5.21-5.22,5.24,5.24,0,0,0,5.21,5.22Z"/><path class="cls-22" d="M589.31,620.86a12.58,12.58,0,1,0-12.57-12.57,12.59,12.59,0,0,0,12.57,12.57Z"/><path class="cls-22" d="M882.69,490.19a5.22,5.22,0,1,0-5.21-5.22,5.2,5.2,0,0,0,5.21,5.22Z"/><path class="cls-22" d="M1062.86,478.47a12.6,12.6,0,1,0-12.61-12.6,12.61,12.61,0,0,0,12.61,12.6Z"/><path class="cls-22" d="M1078.9,411.18a5.2,5.2,0,1,0-5.21-5.21,5.21,5.21,0,0,0,5.21,5.21Z"/></g></g></svg>