<svg xmlns="http://www.w3.org/2000/svg" xmlns:xlink="http://www.w3.org/1999/xlink" viewBox="0 0 1768 747"><defs><style>.cls-1,.cls-14{fill:none;}.cls-2{fill:#fff;}.cls-3{isolation:isolate;}.cls-4{clip-path:url(#clip-path);}.cls-5{opacity:0.55;fill:url(#Degradado_sin_nombre_191);}.cls-6{opacity:0.2;fill:url(#Unnamed_Pattern_4);}.cls-11,.cls-13,.cls-6{mix-blend-mode:overlay;}.cls-7{fill:url(#Degradado_sin_nombre_191-2);}.cls-8{fill:url(#Degradado_sin_nombre_3);}.cls-9{fill:url(#Degradado_sin_nombre_190);}.cls-10,.cls-13{opacity:0.78;}.cls-10{fill:url(#Degradado_sin_nombre_184);}.cls-11{opacity:0.68;fill:url(#Degradado_sin_nombre_1074);}.cls-12,.cls-15,.cls-16,.cls-17,.cls-18{opacity:0.92;}.cls-12{fill:url(#Degradado_sin_nombre_187);}.cls-13{fill:url(#Degradado_sin_nombre_1074-2);}.cls-14{stroke-miterlimit:10;stroke-width:2.13px;opacity:0.63;stroke:url(#Degradado_sin_nombre_182);}.cls-15{fill:url(#Degradado_sin_nombre_188);}.cls-16{fill:url(#Degradado_sin_nombre_181);}.cls-17{fill:url(#Degradado_sin_nombre_188-2);}.cls-18{fill:url(#Degradado_sin_nombre_187-2);}</style><clipPath id="clip-path"><rect class="cls-1" x="-153.41" width="1921.41" height="1079.74"/></clipPath><linearGradient id="Degradado_sin_nombre_191" x1="916.13" y1="-109.63" x2="954.45" y2="215.29" gradientTransform="matrix(1, 0, 0, -1, 0, 410.26)" gradientUnits="userSpaceOnUse"><stop offset="0" stop-color="#360076"/><stop offset="1" stop-color="#140034"/></linearGradient><pattern id="Unnamed_Pattern_4" data-name="Unnamed Pattern 4" width="7.83" height="10" patternTransform="matrix(-0.93, 0.01, 0.01, 0.93, 155.08, -78.63)" patternUnits="userSpaceOnUse" viewBox="0 0 7.83 10"><rect class="cls-1" width="7.83" height="10"/><circle class="cls-2" cx="5.42" cy="11" r="1.5"/><circle class="cls-2" cx="1.5" cy="6" r="1.5"/><circle class="cls-2" cx="5.42" cy="1" r="1.5"/></pattern><linearGradient id="Degradado_sin_nombre_191-2" x1="1014.41" y1="98.94" x2="1084.21" y2="357.23" xlink:href="#Degradado_sin_nombre_191"/><linearGradient id="Degradado_sin_nombre_3" x1="1182.4" y1="209.99" x2="1286.49" y2="491.42" gradientTransform="matrix(1, 0, 0, -1, 0, 410.26)" gradientUnits="userSpaceOnUse"><stop offset="0" stop-color="#3f297d"/><stop offset="0.2" stop-color="#322065"/><stop offset="0.54" stop-color="#1e1242"/><stop offset="0.82" stop-color="#120a2d"/><stop offset="1" stop-color="#0e0725"/></linearGradient><linearGradient id="Degradado_sin_nombre_190" x1="1095.02" y1="89.65" x2="1271.66" y2="501.64" gradientTransform="matrix(1, 0, 0, -1, 0, 410.26)" gradientUnits="userSpaceOnUse"><stop offset="0" stop-color="#ff1bb0"/><stop offset="0.16" stop-color="#c01b9c"/><stop offset="0.32" stop-color="#831b89"/><stop offset="0.45" stop-color="#5d1b7e"/><stop offset="0.51" stop-color="#4e1b79"/><stop offset="1" stop-color="#4e1b79" stop-opacity="0"/></linearGradient><linearGradient id="Degradado_sin_nombre_184" x1="1184.76" y1="71.66" x2="1290.35" y2="742.79" gradientTransform="matrix(1, 0, 0, -1, 0, 410.26)" gradientUnits="userSpaceOnUse"><stop offset="0" stop-color="#ff1bb0"/><stop offset="0.51" stop-color="#4e1b79"/><stop offset="1" stop-color="#4e1b79" stop-opacity="0"/></linearGradient><linearGradient id="Degradado_sin_nombre_1074" x1="1252.12" y1="115.7" x2="1338.55" y2="418.2" gradientTransform="matrix(1, 0, 0, -1, 0, 410.26)" gradientUnits="userSpaceOnUse"><stop offset="0" stop-color="#fff"/><stop offset="1" stop-color="#fff" stop-opacity="0"/></linearGradient><linearGradient id="Degradado_sin_nombre_187" x1="1300.8" y1="329.74" x2="1630.89" y2="816.07" gradientTransform="matrix(1, 0, 0, -1, 0, 410.26)" gradientUnits="userSpaceOnUse"><stop offset="0" stop-color="#ff1bb0"/><stop offset="0.29" stop-color="#ff1bb0"/><stop offset="0.35" stop-color="#fa1baf" stop-opacity="0.97"/><stop offset="0.44" stop-color="#ed1baa" stop-opacity="0.9"/><stop offset="0.55" stop-color="#d71ba4" stop-opacity="0.77"/><stop offset="0.67" stop-color="#b81b9a" stop-opacity="0.6"/><stop offset="0.8" stop-color="#911b8e" stop-opacity="0.38"/><stop offset="0.94" stop-color="#621b7f" stop-opacity="0.11"/><stop offset="1" stop-color="#4e1b79" stop-opacity="0"/></linearGradient><linearGradient id="Degradado_sin_nombre_1074-2" x1="1281.87" y1="319.76" x2="1387.83" y2="475.89" xlink:href="#Degradado_sin_nombre_1074"/><linearGradient id="Degradado_sin_nombre_182" x1="1115.7" y1="356.29" x2="1115.7" y2="651.73" gradientTransform="matrix(0.99, -0.06, -0.07, -1, 282.8, 572.52)" gradientUnits="userSpaceOnUse"><stop offset="0" stop-color="#ff0079" stop-opacity="0.1"/><stop offset="0.35" stop-color="#ff1bb0"/><stop offset="1" stop-color="#ffa6e0"/></linearGradient><linearGradient id="Degradado_sin_nombre_188" x1="1514.21" y1="52.5" x2="1514.21" y2="79.91" gradientTransform="matrix(0.99, 0.16, 0.16, -0.99, 7.52, 167.42)" gradientUnits="userSpaceOnUse"><stop offset="0" stop-color="#ff9edd"/><stop offset="0.33" stop-color="#f172c9"/><stop offset="1" stop-color="#d71ba1"/></linearGradient><linearGradient id="Degradado_sin_nombre_181" x1="698.14" y1="300" x2="698.14" y2="361.81" gradientTransform="matrix(1, 0, 0, -1, 0, 410.26)" gradientUnits="userSpaceOnUse"><stop offset="0" stop-color="#ff1bb0"/><stop offset="0.24" stop-color="#c51b9e"/><stop offset="0.49" stop-color="#921b8e"/><stop offset="0.7" stop-color="#6d1b83"/><stop offset="0.87" stop-color="#561b7c"/><stop offset="0.98" stop-color="#4e1b79"/></linearGradient><linearGradient id="Degradado_sin_nombre_188-2" x1="1145.36" y1="292.74" x2="1145.36" y2="344.07" gradientTransform="matrix(0.99, 0.16, 0.16, -0.99, -35.67, 223.25)" xlink:href="#Degradado_sin_nombre_188"/><linearGradient id="Degradado_sin_nombre_187-2" x1="1603.32" y1="233.32" x2="1603.32" y2="321.16" xlink:href="#Degradado_sin_nombre_187"/></defs><g class="cls-3"><g id="Layer_1" data-name="Layer 1"><g class="cls-4"><path class="cls-5" d="M25.94,94.36C92.08,19.87,209.72,13.41,303.21,47.8S473,139,554.37,196.51c118.3,83.66,201,162.44,345.52,172.76,78.37,5.6,152.57-25.18,227.48-42.89,70.35-16.64,147.41-12.74,211.35,23.34,50,28.22,88.16,73.45,121.23,120.42s62.4,96.85,100.54,139.8c33.2,37.4,74.24,69.81,122.52,82.84,34.06,9.2,70.41,8.1,104.37-1a177.42,177.42,0,0,0,42-16.7c6.79-3.86,37.92-20.69,38-29.38l6.59-681.32H15.58Z"/><path class="cls-6" d="M1739.69,541.39c-104.55-10.41-204.91-52.75-282.58-117.95-63.22-53.08-113-121.16-186.73-161.08-172.75-93.49-371.46,1.89-554.23-4.19C227.59,241.91,44.84-139.18,44.84-139.18L1832.55-275.35s14.45,51.49,35.8,127.61v687.4A574.34,574.34,0,0,1,1739.69,541.39Z"/><path class="cls-7" d="M1681,455.89c-80-8.64-156.72-43.78-216.12-97.9-48.35-44.06-86.4-100.57-142.81-133.7-132.12-77.6-284.09,1.56-423.87-3.48C524.52,207.32,539.25-15.12,314.67-38.87,177.17-53.41,1752-222,1752-222s11,42.73,27.38,105.92V454.45A405,405,0,0,1,1681,455.89Z"/><path class="cls-8" d="M1753.36,396c-46,8.54-96.58,2.9-140.56-12.85-67.21-24.08-121.79-68.31-171.65-114.07S1344,174.66,1284.9,138c-70.72-43.95-157-69-244.05-71C986,65.73,930.69,73.38,876.51,66,791,54.3,714.24,2.81,680-65.82v-115H1753.36Z"/><path class="cls-9" d="M1607.64,240.06c-55.13-38.07-139.31-45.06-213-48.62s-151.16-5.21-214.49-34.65c-37.62-17.48-70.26-44.95-104.18-68.16-77.85-53.26-172-43.84-261.43-43C741.81,46.24,674,30.46,623-24.5c-33.66-36.28-58.63-81.92-73.88-128.93-.92-2.82-1.85-5.66-2.62-8.53H1783.12V477.6C1681.06,479.76,1698.34,302.69,1607.64,240.06Z"/><path class="cls-10" d="M1779.11,292.58c-3.2,2.81-5.61,21.06-12.54,19.56-34.89-7.59-65.65-38.62-85.19-74.39-13.63-24.95-42.68-104.95-135.21-99.41-37.39,2.23-196.79,51.12-232.79,57.09-109.22,18.11-200.24-5.86-273.35-73.76C985,70.55,932.69,18.47,878.1-32.5c-54.3-50.71-123.53-94.94-200.64-95.11v-49.47H1774l1.26,80q1.35,86.16,2.71,172.33,1.29,81.71,2.57,163.4.38,23.34.74,46.7C1781.32,289.1,1780.53,291.33,1779.11,292.58Z"/><path class="cls-11" d="M1888.93-183.22v413a4.67,4.67,0,0,1-3.55.79C1845.9,223,1811.1,192,1789,156.2c-15.43-24.95-48.29-105-153-99.42-42.31,2.23-222.67,51.13-263.4,57.09C1249,132,1146,108,1063.32,40.12,1001-11,941.87-63.09,880.1-114.07c-32.31-26.66-69.29-51.53-109.78-69.15Z"/><path class="cls-12" d="M1779.35,114.91c-26.59-34.6-75.84-54-121.79-56.83-45.48-2.84-90.72,5.91-136,11-97.12,11-201.35,3.71-283.22-44.44-87.26-51.32-142.75-144.84-241.3-175.55-7.47-2.32-16-4.1-23.55-7.13a42.67,42.67,0,0,1-9.32-5C967-165.6,967-164.3,970-165.3c15.12-5.11,43.67,0,59.64,0h749.73Z"/><path class="cls-13" d="M1779.35,80.43c-27.89-25.77-69.6-40.28-108.89-42.74-45.48-2.84-90.72,5.92-136,11-97.12,11-201.35,3.71-283.22-44.44C1164-47,1108.54-140.55,1010-171.26c-7.46-2.33-16-4.1-23.54-7.14a42.22,42.22,0,0,1-9.32-5c2.78-2.56,2.79-1.27,5.76-2.27,15.12-5.1,43.67,0,59.64,0h736.83Z"/><path class="cls-14" d="M1780.37,116.89c-29.71-43.46-90.35-64.84-145.31-64.74-50,.09-99,13.11-148.18,22.08-105.62,19.24-220.39,18.58-313.62-29.35-88.2-45.34-151.43-129.58-241.61-167"/><circle class="cls-15" cx="1514.21" cy="335.6" r="19.24" transform="matrix(0.99, -0.16, 0.16, 0.99, -34.17, 246.19)"/><circle class="cls-16" cx="698.14" cy="91.01" r="19.24"/><circle class="cls-17" cx="1145.36" cy="94.9" r="19.24" transform="matrix(0.99, -0.16, 0.16, 0.99, -0.45, 184.18)"/><circle class="cls-18" cx="1603.32" cy="149.59" r="27.35"/><path class="cls-2" d="M1701.29,207a4.89,4.89,0,1,1,4.88-4.89A4.89,4.89,0,0,1,1701.29,207Z"/><path class="cls-2" d="M1723.18,197.27a4.89,4.89,0,1,1-4.88,4.88A4.89,4.89,0,0,1,1723.18,197.27Z"/><path class="cls-2" d="M1701.29,182.17a4.88,4.88,0,1,1,4.88-4.88A4.89,4.89,0,0,1,1701.29,182.17Z"/><path class="cls-2" d="M1723.18,182.17a4.88,4.88,0,1,1,4.88-4.88A4.89,4.89,0,0,1,1723.18,182.17Z"/><path class="cls-2" d="M1701.29,157.31a4.88,4.88,0,1,1,4.88-4.88A4.89,4.89,0,0,1,1701.29,157.31Z"/><path class="cls-2" d="M1723.18,157.31a4.88,4.88,0,1,1,4.88-4.88A4.89,4.89,0,0,1,1723.18,157.31Z"/><path class="cls-2" d="M1701.29,132.45a4.89,4.89,0,1,1,4.88-4.89A4.9,4.9,0,0,1,1701.29,132.45Z"/><path class="cls-2" d="M1723.18,132.45a4.89,4.89,0,1,1,4.88-4.89A4.9,4.9,0,0,1,1723.18,132.45Z"/><path class="cls-2" d="M1701.29,107.58a4.88,4.88,0,1,1,4.88-4.88A4.89,4.89,0,0,1,1701.29,107.58Z"/><path class="cls-2" d="M1723.18,107.58a4.88,4.88,0,1,1,4.88-4.88A4.89,4.89,0,0,1,1723.18,107.58Z"/><path class="cls-2" d="M1701.29,82.72a4.88,4.88,0,1,1,4.88-4.88A4.89,4.89,0,0,1,1701.29,82.72Z"/><path class="cls-2" d="M1723.18,82.72a4.88,4.88,0,1,1,4.88-4.88A4.89,4.89,0,0,1,1723.18,82.72Z"/><path class="cls-2" d="M1701.29,57.86a4.89,4.89,0,1,1,4.88-4.89A4.89,4.89,0,0,1,1701.29,57.86Z"/><path class="cls-2" d="M1723.18,57.86a4.89,4.89,0,1,1,4.88-4.89A4.89,4.89,0,0,1,1723.18,57.86Z"/></g></g></g></svg>