<svg xmlns="http://www.w3.org/2000/svg" xmlns:xlink="http://www.w3.org/1999/xlink" viewBox="0 0 1253 565"><defs><style>.cls-1,.cls-13{fill:none;}.cls-2{fill:#fff;}.cls-3{isolation:isolate;}.cls-4{clip-path:url(#clip-path);}.cls-5{opacity:0.2;fill:url(#Unnamed_Pattern_4);}.cls-10,.cls-12,.cls-5{mix-blend-mode:overlay;}.cls-6{fill:url(#Degradado_sin_nombre_3);}.cls-7{fill:url(#Degradado_sin_nombre_3-2);}.cls-8{fill:url(#Degradado_sin_nombre_185);}.cls-12,.cls-9{opacity:0.78;}.cls-9{fill:url(#Degradado_sin_nombre_184);}.cls-10{opacity:0.4;fill:url(#Degradado_sin_nombre_1074);}.cls-11,.cls-14,.cls-15,.cls-16{opacity:0.92;}.cls-11{fill:url(#Degradado_sin_nombre_183);}.cls-12{fill:url(#Degradado_sin_nombre_1074-2);}.cls-13{stroke-miterlimit:10;stroke-width:2.15px;opacity:0.63;stroke:url(#Degradado_sin_nombre_182);}.cls-14{fill:url(#Degradado_sin_nombre_181);}.cls-15{fill:url(#Degradado_sin_nombre_181-2);}.cls-16{fill:url(#Degradado_sin_nombre_180);}</style><clipPath id="clip-path"><rect class="cls-1" y="-514.74" width="1921.41" height="1079.74"/></clipPath><pattern id="Unnamed_Pattern_4" data-name="Unnamed Pattern 4" width="7.83" height="10" patternTransform="matrix(1, 0, 0, -1, 140.33, 99.22)" patternUnits="userSpaceOnUse" viewBox="0 0 7.83 10"><rect class="cls-1" width="7.83" height="10"/><circle class="cls-2" cx="5.42" cy="11" r="1.5"/><circle class="cls-2" cx="1.5" cy="6" r="1.5"/><circle class="cls-2" cx="5.42" cy="1" r="1.5"/></pattern><linearGradient id="Degradado_sin_nombre_3" x1="-1468.62" y1="5851.55" x2="-1332.8" y2="6152.13" gradientTransform="matrix(-1, 0, 0, 1, -891.51, -5658.47)" gradientUnits="userSpaceOnUse"><stop offset="0" stop-color="#3f297d"/><stop offset="0.2" stop-color="#322065"/><stop offset="0.54" stop-color="#1e1242"/><stop offset="0.82" stop-color="#120a2d"/><stop offset="1" stop-color="#0e0725"/></linearGradient><linearGradient id="Degradado_sin_nombre_3-2" x1="-1302.01" y1="5975.78" x2="-1225.16" y2="6183.58" xlink:href="#Degradado_sin_nombre_3"/><linearGradient id="Degradado_sin_nombre_185" x1="-1364.64" y1="6008.64" x2="-1298.37" y2="6321.47" gradientTransform="matrix(-1, 0, 0, 1, -891.51, -5658.47)" gradientUnits="userSpaceOnUse"><stop offset="0" stop-color="#ff1bb0"/><stop offset="0.08" stop-color="#d21ba2"/><stop offset="0.18" stop-color="#a31b93"/><stop offset="0.28" stop-color="#7e1b88"/><stop offset="0.37" stop-color="#641b80"/><stop offset="0.45" stop-color="#541b7b"/><stop offset="0.51" stop-color="#4e1b79"/><stop offset="1" stop-color="#4e1b79" stop-opacity="0"/></linearGradient><linearGradient id="Degradado_sin_nombre_184" x1="-1328.92" y1="5907.17" x2="-1220.25" y2="6597.89" gradientTransform="matrix(-1, 0, 0, 1, -891.51, -5658.47)" gradientUnits="userSpaceOnUse"><stop offset="0" stop-color="#ff1bb0"/><stop offset="0.51" stop-color="#4e1b79"/><stop offset="1" stop-color="#4e1b79" stop-opacity="0"/></linearGradient><linearGradient id="Degradado_sin_nombre_1074" x1="367.59" y1="741.01" x2="320.08" y2="540.9" gradientTransform="matrix(1, 0, 0, -1, 0, 1080.26)" gradientUnits="userSpaceOnUse"><stop offset="0" stop-color="#fff"/><stop offset="1" stop-color="#fff" stop-opacity="0"/></linearGradient><linearGradient id="Degradado_sin_nombre_183" x1="-1206.55" y1="6133.72" x2="-866.8" y2="6634.3" gradientTransform="matrix(-1, 0, 0, 1, -891.51, -5658.47)" gradientUnits="userSpaceOnUse"><stop offset="0" stop-color="#ff1bb0"/><stop offset="0.29" stop-color="#ff1bb0"/><stop offset="0.36" stop-color="#fa1baf" stop-opacity="0.97"/><stop offset="0.45" stop-color="#ed1baa" stop-opacity="0.9"/><stop offset="0.55" stop-color="#d71ba4" stop-opacity="0.77"/><stop offset="0.67" stop-color="#b81b9a" stop-opacity="0.6"/><stop offset="0.81" stop-color="#911b8e" stop-opacity="0.38"/><stop offset="0.94" stop-color="#621b7f" stop-opacity="0.11"/><stop offset="1" stop-color="#4e1b79" stop-opacity="0"/></linearGradient><linearGradient id="Degradado_sin_nombre_1074-2" x1="-1221.96" y1="6133.56" x2="-1112.89" y2="6294.26" gradientTransform="matrix(-1, 0, 0, 1, -891.51, -5658.47)" xlink:href="#Degradado_sin_nombre_1074"/><linearGradient id="Degradado_sin_nombre_182" x1="-1022.55" y1="5999.05" x2="-1022.55" y2="6303.17" gradientTransform="matrix(-1, 0.05, 0.05, 1, -1047.07, -5536.34)" gradientUnits="userSpaceOnUse"><stop offset="0" stop-color="#ff0079" stop-opacity="0.1"/><stop offset="0.35" stop-color="#ff1bb0"/><stop offset="1" stop-color="#ffa6e0"/></linearGradient><linearGradient id="Degradado_sin_nombre_181" x1="-967.3" y1="5896.32" x2="-967.3" y2="5951.41" gradientTransform="matrix(-0.71, -0.71, -0.71, 0.71, 3575.14, -4609.67)" gradientUnits="userSpaceOnUse"><stop offset="0" stop-color="#ff1bb0"/><stop offset="0.24" stop-color="#c51b9e"/><stop offset="0.49" stop-color="#921b8e"/><stop offset="0.7" stop-color="#6d1b83"/><stop offset="0.87" stop-color="#561b7c"/><stop offset="0.98" stop-color="#4e1b79"/></linearGradient><linearGradient id="Degradado_sin_nombre_181-2" x1="-1164.33" y1="5954.69" x2="-1164.33" y2="5994.88" gradientTransform="matrix(-1, 0, 0, 1, -891.51, -5658.47)" xlink:href="#Degradado_sin_nombre_181"/><linearGradient id="Degradado_sin_nombre_180" x1="706.11" y1="666.59" x2="693.66" y2="606.02" gradientTransform="matrix(1, 0, 0, -1, 0, 1080.26)" gradientUnits="userSpaceOnUse"><stop offset="0" stop-color="#ff9edd"/><stop offset="0.16" stop-color="#f67fcf"/><stop offset="0.43" stop-color="#e854bb"/><stop offset="0.66" stop-color="#df35ad"/><stop offset="0.86" stop-color="#d922a4"/><stop offset="1" stop-color="#d71ba1"/></linearGradient></defs><g class="cls-3"><g id="Layer_1" data-name="Layer 1"><g class="cls-4"><path class="cls-5" d="M-22,82.41c82.3,8.89,161.31,45.06,222.44,100.76,49.77,45.35,88.94,103.52,147,137.62,136,79.87,292.41-1.61,436.29,3.58,384.58,13.89,528.44,339.47,528.44,339.47L-95.12,780.16l-28.18-109V83.89A416.63,416.63,0,0,1-22,82.41Z"/><path class="cls-6" d="M119.73,136.13c63.81,66.08,100.74,157.32,181.55,204,57.78,33.38,129,38.13,196.69,35.32s139.82-6.75,207.44-3.63c363.15,16.73,452.43,368.42,452.43,368.42H-177.53V30.75C-68.47,21.76,45.71,59.48,119.73,136.13Z"/><path class="cls-7" d="M-177.53,116.79c47.36-8.8,99.42-3,144.68,13.23,69.17,24.78,125.36,70.3,176.68,117.4s100,97.18,160.82,135c72.79,45.24,161.54,71.06,251.2,73.08,56.45,1.27,113.38-6.61,169.15,1,88,12,167,65,202.28,135.66V710.46H-177.53Z"/><path class="cls-8" d="M-87.87,188.86C-58.72,230.3-36.54,276.52,8.78,308c56.65,39.32,137.7,47.58,213.5,51.24S377.86,364.58,443,394.89c38.72,18,72.32,46.26,107.23,70.15C650,533.27,764.41,503.7,875.64,511,1041.08,522,1095.29,723,1095.29,723H-177.53V111.86C-139.14,127.86-109.38,158.27-87.87,188.86Z"/><path class="cls-9" d="M-148.27,252.08c3.18-2.89,5.58-21.68,12.47-20.13,34.7,7.8,65.29,39.75,84.72,76.56,13.55,25.68,42.43,108,134.45,102.33,37.19-2.31,195.7-52.63,231.5-58.77,108.62-18.63,199.13,6,271.84,75.92,54.75,52.62,106.74,106.22,161,158.68,54,52.2,122.85,97.73,199.53,97.9v50.92H-143.18q-.63-41.19-1.25-82.37l-2.7-177.38q-1.27-84.09-2.56-168.18-.36-24-.73-48.07C-150.47,255.66-149.68,253.36-148.27,252.08Z"/><path class="cls-10" d="M-177.53,746.71V321.6a3.74,3.74,0,0,1,3.17-.82c35.21,7.81,66.25,39.76,86,76.57,13.76,25.69,43.07,108,136.45,102.33,37.73-2.3,198.59-52.62,234.92-58.76,110.22-18.64,202.07,6,275.85,75.91,55.56,52.63,108.32,106.23,163.41,158.7,28.81,27.45,61.8,53,97.91,71.18Z"/><path class="cls-11" d="M-177.53,439.85c27.38,35.61,78.07,55.54,125.37,58.5,46.81,2.92,93.37-6.09,139.93-11.35,100-11.31,207.24-3.82,291.5,45.73,89.82,52.82,146.93,149.08,248.37,180.69,7.69,2.39,16.5,4.22,24.24,7.34a43.62,43.62,0,0,1,9.59,5.18c-2.86,2.63-2.87,1.3-5.93,2.33-15.56,5.25-44.94,0-61.38,0H-177.53Z"/><path class="cls-12" d="M-181.6,485.44c28.71,26.53,71.64,41.46,112.08,44,46.82,2.93,93.38-6.08,139.93-11.35,100-11.3,207.25-3.82,291.51,45.74,89.81,52.82,146.93,149.07,248.37,180.68,7.69,2.4,16.5,4.22,24.24,7.35a43.4,43.4,0,0,1,9.59,5.17c-2.87,2.64-2.87,1.3-5.93,2.33-15.56,5.26-44.94,0-61.39,0H-181.6Z"/><path class="cls-13" d="M-181.63,429.48c30.06,45.3,92.82,68.47,150.09,69.43,52.16.87,103.43-11.59,154.88-19.87,127.11-20.44,213.43-23.73,326.24,36.24,91,48.36,155.13,136.27,248.34,176.53"/><circle class="cls-14" cx="75.79" cy="257.65" r="19.81" transform="translate(-159.99 129.06) rotate(-45)"/><circle class="cls-15" cx="272.82" cy="308.73" r="12.51"/><circle class="cls-16" cx="699.18" cy="447.38" r="19.81"/><path class="cls-2" d="M46.82,519.7a4.89,4.89,0,1,1,4.88-4.89A4.9,4.9,0,0,1,46.82,519.7Z"/><path class="cls-2" d="M68.7,509.93a4.89,4.89,0,1,1-4.88,4.88A4.89,4.89,0,0,1,68.7,509.93Z"/><path class="cls-2" d="M46.82,494.83A4.88,4.88,0,1,1,51.7,490,4.89,4.89,0,0,1,46.82,494.83Z"/><path class="cls-2" d="M68.7,494.83A4.88,4.88,0,1,1,73.58,490,4.89,4.89,0,0,1,68.7,494.83Z"/><path class="cls-2" d="M46.82,470a4.89,4.89,0,1,1,4.88-4.88A4.89,4.89,0,0,1,46.82,470Z"/><path class="cls-2" d="M68.7,470a4.89,4.89,0,1,1,4.88-4.88A4.89,4.89,0,0,1,68.7,470Z"/><path class="cls-2" d="M46.82,445.1a4.88,4.88,0,1,1,4.88-4.88A4.89,4.89,0,0,1,46.82,445.1Z"/><path class="cls-2" d="M68.7,445.1a4.88,4.88,0,1,1,4.88-4.88A4.89,4.89,0,0,1,68.7,445.1Z"/><path class="cls-2" d="M46.82,420.24a4.88,4.88,0,1,1,4.88-4.88A4.89,4.89,0,0,1,46.82,420.24Z"/><path class="cls-2" d="M68.7,420.24a4.88,4.88,0,1,1,4.88-4.88A4.89,4.89,0,0,1,68.7,420.24Z"/><path class="cls-2" d="M46.82,395.38a4.88,4.88,0,1,1,4.88-4.88A4.89,4.89,0,0,1,46.82,395.38Z"/><path class="cls-2" d="M68.7,395.38a4.88,4.88,0,1,1,4.88-4.88A4.89,4.89,0,0,1,68.7,395.38Z"/><path class="cls-2" d="M46.82,370.52a4.89,4.89,0,1,1,4.88-4.89A4.9,4.9,0,0,1,46.82,370.52Z"/><path class="cls-2" d="M68.7,370.52a4.89,4.89,0,1,1,4.88-4.89A4.9,4.9,0,0,1,68.7,370.52Z"/></g></g></g></svg>