<svg xmlns="http://www.w3.org/2000/svg" id="Layer_1" data-name="Layer 1" viewBox="0 0 795 694"><defs><style>.cls-1{fill:none;stroke:#fff;stroke-miterlimit:10;opacity:.5}.cls-2{opacity:.8}.cls-3{fill:#fff}</style></defs><circle cx="217.89" cy="424.64" r="32" class="cls-1"/><g class="cls-2"><path d="M225.17,409.14H211.3a8.55,8.55,0,0,0-8.54,8.54v13.87a8.55,8.55,0,0,0,8.54,8.54h13.87a8.55,8.55,0,0,0,8.54-8.54V417.68A8.55,8.55,0,0,0,225.17,409.14Zm5.8,22.41a5.8,5.8,0,0,1-5.8,5.8H211.3a5.8,5.8,0,0,1-5.8-5.8V417.68a5.81,5.81,0,0,1,5.8-5.8h13.87a5.81,5.81,0,0,1,5.8,5.8v13.87Z" class="cls-3"/><path d="M218.23,416.64a8,8,0,1,0,8,8A8,8,0,0,0,218.23,416.64Zm0,13.21a5.23,5.23,0,1,1,5.23-5.23A5.24,5.24,0,0,1,218.23,429.85Z" class="cls-3"/><path d="M226.55,414.31a2.07,2.07,0,0,0-1.43.59,2,2,0,0,0-.59,1.43,2,2,0,0,0,3.44,1.42,2,2,0,0,0,.59-1.42,2,2,0,0,0-.59-1.43A2,2,0,0,0,226.55,414.31Z" class="cls-3"/></g></svg>