<svg id="Layer_1" data-name="Layer 1" xmlns="http://www.w3.org/2000/svg" viewBox="0 0 573 189"><defs><style>.cls-1,.cls-9{fill:#fff;}.cls-2{fill:#738291;}.cls-3{fill:#ff1bb0;}.cls-4{opacity:0.25;font-size:55.94px;fill:#79c439;}.cls-4,.cls-7{font-family:Montserrat-Medium, Montserrat;font-weight:500;}.cls-5{fill:#2f3948;}.cls-6{fill:#28313f;}.cls-7{font-size:22px;}.cls-8{letter-spacing:-0.02em;}.cls-9{font-size:26.39px;font-family:Montserrat-Bold, Montserrat;font-weight:700;}.cls-10{letter-spacing:-0.04em;}.cls-11{letter-spacing:-0.01em;}.cls-12{letter-spacing:0em;}</style></defs><polygon class="cls-1" points="49.23 163.68 9.09 94.15 49.23 24.63 283.97 24.63 324.11 94.16 283.97 163.68 49.23 163.68"/><polygon class="cls-2" points="265.74 24.63 305.88 94.16 265.74 163.68 269.51 163.68 309.65 94.16 269.51 24.63 265.74 24.63"/><polygon class="cls-3" points="19.05 97.56 36.95 66.56 22.73 66.56 4.83 97.56 22.73 128.57 36.95 128.57 19.05 97.56"/><text class="cls-4" transform="translate(59.47 82.75)">05</text><path class="cls-5" d="M300.81,54.54A41.51,41.51,0,1,1,259.3,96.05,41.51,41.51,0,0,1,300.81,54.54Z"/><path class="cls-6" d="M267.77,121.18a41.5,41.5,0,1,0,64.45-52.25A134.64,134.64,0,0,1,267.77,121.18Z"/><polygon class="cls-6" points="339.78 83.82 339.78 106.3 357 95.06 339.78 83.82"/><path class="cls-1" d="M316.21,85.15a4.64,4.64,0,0,1-1.37-3.3,6.14,6.14,0,0,0-6.13-6.13,4.65,4.65,0,0,1-3.29-1.36,6.14,6.14,0,0,0-8.67,0,4.65,4.65,0,0,1-3.29,1.36,6.14,6.14,0,0,0-6.13,6.13,4.61,4.61,0,0,1-1.37,3.3,6.14,6.14,0,0,0,0,8.67,4.63,4.63,0,0,1,1.37,3.29,6.13,6.13,0,0,0,4.39,5.88l-3.56,13.29,5.37-3,3.15,5.28L300,106.3a6.21,6.21,0,0,0,2.22,0l3.3,12.26,3.15-5.28,5.37,3L310.45,103a6.14,6.14,0,0,0,4.39-5.87,4.65,4.65,0,0,1,1.37-3.3A6.13,6.13,0,0,0,316.21,85.15Zm-20,29.67-2.1-3.51-3.57,2,2.69-10.07h.29a4.63,4.63,0,0,1,3.29,1.37c.15.15.29.27.44.4l.14.11.34.24.19.13.29.17.26.13.14.06Zm15.53-1.52-3.58-2-2.1,3.51-2.4-9,.16-.07c.09,0,.17-.08.26-.14l.28-.16.21-.13.32-.23L305,105a5.48,5.48,0,0,0,.44-.4,4.64,4.64,0,0,1,3.3-1.37H309Zm3.47-20.52a6.09,6.09,0,0,0-1.8,4.33,4.68,4.68,0,0,1-3.71,4.57l-.23,0-.36.05-.36,0a6.23,6.23,0,0,0-1.78.26,6.14,6.14,0,0,0-2.55,1.53,4,4,0,0,1-.38.34l-.14.1a1.87,1.87,0,0,1-.29.2,1.19,1.19,0,0,1-.15.09,2.59,2.59,0,0,1-.33.17l-.13.07a3.47,3.47,0,0,1-.41.16l-.09,0-.06,0a4.82,4.82,0,0,1-2.61,0l-.08,0-.07,0-.43-.16-.12-.06a2.21,2.21,0,0,1-.34-.18l-.13-.08a3.37,3.37,0,0,1-.31-.21l-.12-.09-.39-.34a6,6,0,0,0-2.54-1.53,6.23,6.23,0,0,0-1.78-.26l-.37,0-.35,0-.23,0a4.68,4.68,0,0,1-3.72-4.57A6.06,6.06,0,0,0,287,92.8a4.65,4.65,0,0,1,0-6.59,6.09,6.09,0,0,0,1.79-4.34,4.66,4.66,0,0,1,4.66-4.65,6.07,6.07,0,0,0,4.33-1.8,4.7,4.7,0,0,1,6.59,0,6.1,6.1,0,0,0,4.34,1.8,4.65,4.65,0,0,1,4.65,4.65,6.1,6.1,0,0,0,1.8,4.34A4.64,4.64,0,0,1,315.17,92.78Z"/><path class="cls-1" d="M301.09,78.46a11,11,0,1,0,11,11A11.05,11.05,0,0,0,301.09,78.46Zm0,20.58a9.56,9.56,0,1,1,9.56-9.56A9.57,9.57,0,0,1,301.09,99Z"/><path class="cls-1" d="M301.09,82,299.45,87h-5.31l4.3,3.12-1.64,5.06,4.3-3.13,4.3,3.13-1.65-5.06,4.3-3.12h-5.31Zm1.5,9.38-1.5-1.1-1.5,1.1.57-1.77-1.51-1.09h1.86l.57-1.77.57,1.77h1.86L302,89.57Z"/><text class="cls-7" transform="translate(59.87 116.8)"><tspan class="cls-8">W</tspan><tspan x="24.44" y="0">INNERS</tspan><tspan x="0" y="26.4">ANNOUNCED</tspan></text><text class="cls-9" transform="translate(385.29 93.16)">09<tspan x="-13.69" y="31.66">M</tspan><tspan class="cls-10" x="11.5" y="31.66">A</tspan><tspan x="30.58" y="31.66">Y</tspan></text><text class="cls-9" transform="translate(501.62 103.16)">7 <tspan class="cls-11" x="23.83" y="0">P</tspan><tspan class="cls-12" x="42.88" y="0">M</tspan></text><circle class="cls-3" cx="467.3" cy="95.49" r="7.61"/><path class="cls-5" d="M463.13,95.49a4.17,4.17,0,1,1,4.17,4.16A4.17,4.17,0,0,1,463.13,95.49Z"/></svg>