<svg id="Layer_1" data-name="Layer 1" xmlns="http://www.w3.org/2000/svg" xmlns:xlink="http://www.w3.org/1999/xlink" viewBox="0 0 573 189"><defs><style>.cls-1,.cls-9{fill:#fff;}.cls-2{fill:#738291;}.cls-3{fill:#ff1bb0;}.cls-4{opacity:0.25;font-size:55.94px;fill:#df6e33;}.cls-4,.cls-8{font-family:Montserrat-Medium, Montserrat;font-weight:500;}.cls-5{letter-spacing:-0.01em;}.cls-6{fill:#2f3948;}.cls-7{fill:#28313f;}.cls-8{font-size:32.39px;}.cls-9{font-size:26.39px;font-family:Montserrat-Bold, Montserrat;font-weight:700;}.cls-10{letter-spacing:-0.04em;}.cls-11{letter-spacing:-0.01em;}</style></defs><polygon class="cls-1" points="51.94 172.09 11.8 102.56 51.94 33.04 286.67 33.04 326.81 102.57 286.67 172.09 51.94 172.09"/><polygon class="cls-2" points="268.45 33.04 308.59 102.57 268.45 172.09 272.21 172.09 312.35 102.57 272.21 33.04 268.45 33.04"/><polygon class="cls-3" points="20.05 102.56 37.95 71.56 23.73 71.56 5.83 102.56 23.73 133.57 37.95 133.57 20.05 102.56"/><text class="cls-4" transform="translate(60.47 89.46)"><tspan class="cls-5">0</tspan><tspan x="36.75" y="0">3</tspan></text><path class="cls-6" d="M301.81,59.53a41.52,41.52,0,1,1-41.51,41.52A41.52,41.52,0,0,1,301.81,59.53Z"/><path class="cls-7" d="M268.77,126.17a41.5,41.5,0,1,0,64.45-52.24A134.61,134.61,0,0,1,268.77,126.17Z"/><polygon class="cls-7" points="340.78 88.82 340.78 111.3 358 100.06 340.78 88.82"/><image width="50" height="50" transform="translate(277 76)" xlink:href="../../../../Downloads/icons8-quiz-50%20(1).png"/><text class="cls-8" transform="translate(60.87 133.63)">ROUND 1</text><text class="cls-9" transform="translate(379.99 100.16)">08<tspan x="-13.39" y="31.66">M</tspan><tspan class="cls-10" x="11.81" y="31.66">A</tspan><tspan x="30.88" y="31.66">Y</tspan></text><text class="cls-9" transform="translate(502.95 108.16)">5 <tspan class="cls-11" x="23.17" y="0">P</tspan><tspan x="42.22" y="0">M</tspan></text><circle class="cls-3" cx="465.04" cy="101.53" r="7.61"/><path class="cls-6" d="M460.88,101.53A4.17,4.17,0,1,1,465,105.7,4.16,4.16,0,0,1,460.88,101.53Z"/></svg>