<svg id="Layer_1" data-name="Layer 1" xmlns="http://www.w3.org/2000/svg" viewBox="0 0 573 189"><defs><style>.cls-1,.cls-14{fill:#fff;}.cls-2{fill:#738291;}.cls-3{fill:#ff1bb0;}.cls-4{opacity:0.2;font-size:55.74px;fill:#4479fb;}.cls-4,.cls-9{font-family:Montserrat-Medium, Montserrat;font-weight:500;}.cls-5{letter-spacing:0em;}.cls-6{fill:#2f3948;}.cls-7{fill:#28313f;}.cls-8{fill:none;stroke:#fff;stroke-linecap:round;stroke-linejoin:round;}.cls-9{font-size:22.01px;}.cls-10{letter-spacing:0em;}.cls-11{letter-spacing:-0.01em;}.cls-12{letter-spacing:-0.03em;}.cls-13{letter-spacing:-0.01em;}.cls-14{font-size:26.39px;font-family:Montserrat-Bold, Montserrat;font-weight:700;}.cls-15{letter-spacing:0em;}.cls-16{letter-spacing:0em;}.cls-17{letter-spacing:-0.04em;}.cls-18{letter-spacing:-0.01em;}</style></defs><polygon class="cls-1" points="512.96 164.04 552.96 94.77 512.96 25.5 279.07 25.5 239.08 94.77 279.07 164.04 512.96 164.04"/><polygon class="cls-2" points="297.23 25.5 257.24 94.77 297.23 164.04 293.48 164.04 253.49 94.77 293.48 25.5 297.23 25.5"/><polygon class="cls-3" points="546 94.77 528.16 63.87 542.34 63.87 560.17 94.77 542.34 125.66 528.16 125.66 546 94.77"/><text class="cls-4" transform="translate(317.67 81.71)"><tspan class="cls-5">0</tspan><tspan x="37.01" y="0">2</tspan></text><path class="cls-6" d="M264,51.9a41.36,41.36,0,1,0,41.36,41.36A41.36,41.36,0,0,0,264,51.9Z"/><path class="cls-7" d="M296.91,118.29a41.35,41.35,0,1,1-64.22-52.05A134.16,134.16,0,0,0,296.91,118.29Z"/><polygon class="cls-7" points="225.16 81.07 225.16 103.48 208 92.28 225.16 81.07"/><path class="cls-8" d="M279.23,74H248.46a5.67,5.67,0,0,0-5.67,5.67v30.77a5.67,5.67,0,0,0,5.67,5.67h30.77a5.67,5.67,0,0,0,5.67-5.67V79.7A5.67,5.67,0,0,0,279.23,74Z"/><line class="cls-8" x1="253.6" y1="70.22" x2="253.6" y2="77.15"/><line class="cls-8" x1="275.8" y1="70.22" x2="275.8" y2="77.15"/><line class="cls-8" x1="243" y1="87.55" x2="284.9" y2="87.55"/><line class="cls-8" x1="260.55" y1="81.11" x2="267.35" y2="81.11"/><path class="cls-8" d="M258.68,109.05v-14h-3.09v-.41h3.5v14.37Z"/><path class="cls-8" d="M271.58,98c0,1.23-.92,3-2.46,4.56l-5.43,6h9v.41h-9.38v-.58l5.55-6.17c1.46-1.52,2.35-3.14,2.35-4.27,0-1.83-1.38-2.94-3.64-2.94a5.71,5.71,0,0,0-4,1.74l-.29-.28a6,6,0,0,1,4.24-1.87C270,94.68,271.58,96,271.58,98Z"/><text class="cls-9" transform="translate(317.87 119.8)">R<tspan class="cls-10" x="16" y="0">E</tspan><tspan x="30.68" y="0">GI</tspan><tspan class="cls-11" x="54.49" y="0">S</tspan><tspan x="67.94" y="0">TR</tspan><tspan class="cls-12" x="96.86" y="0">A</tspan><tspan x="112.2" y="0">TIONS</tspan><tspan x="0" y="26.41">C</tspan><tspan class="cls-13" x="15.91" y="26.41">L</tspan><tspan x="28.7" y="26.41">OSED</tspan></text><text class="cls-14" transform="translate(142.57 87.16)"><tspan class="cls-15">0<tspan class="cls-16" x="17.81" y="0">7</tspan></tspan><tspan x="-13.97" y="31.66">M</tspan><tspan class="cls-17" x="11.23" y="31.66">A</tspan><tspan x="30.3" y="31.66">Y</tspan></text><text class="cls-14" transform="translate(17.6 87.16)">11:59<tspan class="cls-18" x="7.93" y="31.66">P</tspan><tspan x="26.98" y="31.66">M</tspan></text><circle class="cls-3" cx="102.81" cy="85.17" r="7.61"/><path class="cls-6" d="M98.64,85.17a4.17,4.17,0,1,1,4.17,4.17A4.17,4.17,0,0,1,98.64,85.17Z"/></svg>