<svg xmlns="http://www.w3.org/2000/svg" xmlns:xlink="http://www.w3.org/1999/xlink" id="Layer_1" data-name="Layer 1" viewBox="0 0 573 189"><defs><style>.cls-1,.cls-9{fill:#fff}.cls-2{fill:#738291}.cls-3{fill:#ff1bb0}.cls-4{opacity:.25;font-size:55.94px;fill:#df6e33}.cls-4,.cls-8{font-family:Montserrat-Medium,Montserrat;font-weight:500}.cls-5{letter-spacing:-.01em}.cls-6{fill:#2f3948}.cls-7{fill:#28313f}.cls-8{font-size:32.39px}.cls-9{font-size:26.39px;font-family:Montserrat-Bold,Montserrat;font-weight:700}.cls-10{letter-spacing:-.04em}.cls-11{letter-spacing:-.01em}</style></defs><polygon points="51.94 172.09 11.8 102.56 51.94 33.04 286.67 33.04 326.81 102.57 286.67 172.09 51.94 172.09" class="cls-1"/><polygon points="268.45 33.04 308.59 102.57 268.45 172.09 272.21 172.09 312.35 102.57 272.21 33.04 268.45 33.04" class="cls-2"/><polygon points="20.05 102.56 37.95 71.56 23.73 71.56 5.83 102.56 23.73 133.57 37.95 133.57 20.05 102.56" class="cls-3"/><text class="cls-4" transform="translate(60.47 89.46)"><tspan class="cls-5">0</tspan><tspan x="36.75" y="0">3</tspan></text><path d="M301.81,59.53a41.52,41.52,0,1,1-41.51,41.52A41.52,41.52,0,0,1,301.81,59.53Z" class="cls-6"/><path d="M268.77,126.17a41.5,41.5,0,1,0,64.45-52.24A134.61,134.61,0,0,1,268.77,126.17Z" class="cls-7"/><polygon points="340.78 88.82 340.78 111.3 358 100.06 340.78 88.82" class="cls-7"/><image width="50" height="50" transform="translate(277 76)" xlink:href="../../../../Downloads/icons8-quiz-50%20(1).png"/><text class="cls-8" transform="translate(60.87 133.63)">ROUND 1</text><text class="cls-9" transform="translate(379.99 100.16)">08<tspan x="-13.39" y="31.66">M</tspan><tspan x="11.81" y="31.66" class="cls-10">A</tspan><tspan x="30.88" y="31.66">Y</tspan></text><text class="cls-9" transform="translate(502.95 108.16)">5 <tspan x="23.17" y="0" class="cls-11">P</tspan><tspan x="42.22" y="0">M</tspan></text><circle cx="465.04" cy="101.53" r="7.61" class="cls-3"/><path d="M460.88,101.53A4.17,4.17,0,1,1,465,105.7,4.16,4.16,0,0,1,460.88,101.53Z" class="cls-6"/></svg>