<svg id="Layer_1" data-name="Layer 1" xmlns="http://www.w3.org/2000/svg" viewBox="0 0 573 189"><defs><style>.cls-1,.cls-8{fill:#fff;}.cls-2{fill:#738291;}.cls-3{fill:#ff1bb0;}.cls-4{fill:#2f3948;}.cls-5{fill:#28313f;}.cls-6{opacity:0.25;font-size:55.94px;fill:#df6e33;}.cls-6,.cls-7{font-family:Montserrat-Medium, Montserrat;font-weight:500;}.cls-7{font-size:32.39px;}.cls-8{font-size:26.39px;font-family:Montserrat-Bold, Montserrat;font-weight:700;}.cls-9{letter-spacing:-0.04em;}.cls-10{letter-spacing:-0.01em;}.cls-11{letter-spacing:0em;}</style></defs><polygon class="cls-1" points="522.96 163.63 562.96 94.36 522.96 25.09 289.07 25.09 249.08 94.36 289.07 163.63 522.96 163.63"/><polygon class="cls-2" points="307.23 25.09 267.24 94.36 307.23 163.63 303.48 163.63 263.49 94.36 303.48 25.09 307.23 25.09"/><polygon class="cls-3" points="556 94.36 538.16 63.46 552.34 63.46 570.17 94.36 552.34 125.25 538.16 125.25 556 94.36"/><path class="cls-4" d="M274,51.48a41.37,41.37,0,1,0,41.36,41.36A41.36,41.36,0,0,0,274,51.48Z"/><path class="cls-5" d="M306.91,117.88a41.36,41.36,0,1,1-64.22-52.06A134.12,134.12,0,0,0,306.91,117.88Z"/><polygon class="cls-5" points="235.16 80.66 235.16 103.06 218 91.86 235.16 80.66"/><text class="cls-6" transform="translate(327.78 78.47)">04</text><path class="cls-1" d="M296.64,102.53H252.85a2.5,2.5,0,0,1-2.49-2.49V76.49A2.5,2.5,0,0,1,252.85,74h43.79a2.49,2.49,0,0,1,2.49,2.49V100A2.49,2.49,0,0,1,296.64,102.53ZM252.85,76a.49.49,0,0,0-.48.48V100a.49.49,0,0,0,.48.48h43.79a.48.48,0,0,0,.48-.48V76.49a.48.48,0,0,0-.48-.48Z"/><path class="cls-1" d="M269.54,95.91A1,1,0,0,1,269,95V81.51a1,1,0,0,1,.54-.89,1,1,0,0,1,1,.07l9.5,6.75a1,1,0,0,1,.42.82,1,1,0,0,1-.42.82l-9.5,6.75A.9.9,0,0,1,269.54,95.91ZM271,83.46v9.6l6.75-4.8Z"/><path class="cls-1" d="M298.13,108.24H278.9a4,4,0,0,0-7.7,0H251.37a1,1,0,1,0,0,2H271.2a4,4,0,0,0,7.7,0h19.23a1,1,0,0,0,0-2Zm-23.08,3a2,2,0,1,1,2-2A2,2,0,0,1,275.05,111.21Z"/><text class="cls-7" transform="translate(327.87 123.8)">ROUND 2</text><text class="cls-8" transform="translate(151.99 91.16)">08<tspan x="-13.39" y="31.66">M</tspan><tspan class="cls-9" x="11.81" y="31.66">A</tspan><tspan x="30.88" y="31.66">Y</tspan></text><text class="cls-8" transform="translate(13.62 103.16)">7 <tspan class="cls-10" x="23.83" y="0">P</tspan><tspan class="cls-11" x="42.88" y="0">M</tspan></text><circle class="cls-3" cx="114.47" cy="91.15" r="7.61"/><path class="cls-4" d="M110.3,91.15a4.17,4.17,0,1,1,4.17,4.16A4.17,4.17,0,0,1,110.3,91.15Z"/></svg>