<svg id="Layer_1" data-name="Layer 1" xmlns="http://www.w3.org/2000/svg" viewBox="0 0 573 189"><defs><style>.cls-1,.cls-9{fill:#fff;}.cls-2{fill:#738291;}.cls-3{opacity:0.2;font-size:55.94px;fill:#e51c34;}.cls-14,.cls-3{font-family:Montserrat-Medium, Montserrat;font-weight:500;}.cls-4{letter-spacing:0em;}.cls-5{fill:#2f3948;}.cls-6{fill:#28313f;}.cls-7{fill:none;stroke:#fff;stroke-linecap:round;stroke-linejoin:round;}.cls-8{fill:#ff1bb0;}.cls-9{font-size:26.39px;font-family:Montserrat-Bold, Montserrat;font-weight:700;}.cls-10{letter-spacing:-0.01em;}.cls-11{letter-spacing:-0.04em;}.cls-12{letter-spacing:-0.01em;}.cls-13{letter-spacing:0em;}.cls-14{font-size:22.01px;}.cls-15{letter-spacing:0em;}.cls-16{letter-spacing:-0.01em;}.cls-17{letter-spacing:-0.03em;}.cls-18{letter-spacing:-0.01em;}</style></defs><polygon class="cls-1" points="57.94 170.5 17.8 100.97 57.94 31.45 292.67 31.45 332.81 100.98 292.67 170.5 57.94 170.5"/><polygon class="cls-2" points="274.45 31.45 314.59 100.98 274.45 170.5 278.21 170.5 318.35 100.98 278.21 31.45 274.45 31.45"/><text class="cls-3" transform="translate(66.47 87.87)"><tspan class="cls-4">0</tspan><tspan x="37.14" y="0">1</tspan></text><path class="cls-5" d="M307.81,58A41.51,41.51,0,1,1,266.3,99.46,41.51,41.51,0,0,1,307.81,58Z"/><path class="cls-6" d="M274.77,124.58a41.5,41.5,0,1,0,64.45-52.24A134.61,134.61,0,0,1,274.77,124.58Z"/><polygon class="cls-6" points="346.78 87.23 346.78 109.71 364 98.47 346.78 87.23"/><path class="cls-7" d="M316.14,112v3.18a4,4,0,0,1-4.06,4h-8.34a4,4,0,0,1-4.06-4V112"/><path class="cls-7" d="M299.49,112.49a15.57,15.57,0,0,1-8-13.48c0-8.67,7.33-15.7,16.37-15.7s16.38,7,16.38,15.7a15.59,15.59,0,0,1-8,13.48"/><line class="cls-7" x1="302.52" y1="125.06" x2="313.6" y2="125.06"/><line class="cls-7" x1="308.06" y1="78.61" x2="308.06" y2="73.86"/><line class="cls-7" x1="286.8" y1="96.3" x2="282.59" y2="96.3"/><line class="cls-7" x1="333.79" y1="96.3" x2="328.96" y2="96.3"/><line class="cls-7" x1="326.52" y1="80.03" x2="323.31" y2="83.11"/><line class="cls-7" x1="325" y1="110.65" x2="328.32" y2="113.84"/><line class="cls-7" x1="289.01" y1="79.45" x2="292.82" y2="83.11"/><line class="cls-7" x1="290.91" y1="110.86" x2="288.2" y2="113.46"/><line class="cls-7" x1="304.96" y1="119.12" x2="304.96" y2="104.57"/><line class="cls-7" x1="300.59" y1="104.57" x2="315.57" y2="104.57"/><line class="cls-7" x1="310.58" y1="119.12" x2="310.58" y2="104.57"/><polygon class="cls-8" points="26.05 100.97 43.95 69.97 29.73 69.97 11.83 100.97 29.73 131.98 43.95 131.98 26.05 100.97"/><text class="cls-9" transform="translate(395.61 92.33)"><tspan class="cls-10">0</tspan><tspan x="17.76" y="0">1</tspan><tspan x="-17.01" y="31.66">M</tspan><tspan class="cls-11" x="8.19" y="31.66">A</tspan><tspan x="27.27" y="31.66">Y</tspan></text><text class="cls-9" transform="translate(496.62 108.16)">7 <tspan class="cls-12" x="23.83" y="0">P</tspan><tspan class="cls-13" x="42.88" y="0">M</tspan></text><circle class="cls-8" cx="469.81" cy="99.17" r="7.61"/><path class="cls-5" d="M465.64,99.17a4.17,4.17,0,1,1,4.17,4.17A4.17,4.17,0,0,1,465.64,99.17Z"/><text class="cls-14" transform="translate(69.87 118.8)">R<tspan class="cls-15" x="16" y="0">E</tspan><tspan x="30.68" y="0">GI</tspan><tspan class="cls-16" x="54.49" y="0">S</tspan><tspan x="67.94" y="0">TR</tspan><tspan class="cls-17" x="96.86" y="0">A</tspan><tspan x="112.2" y="0">TIONS</tspan><tspan x="0" y="26.41">O</tspan><tspan class="cls-18" x="18.49" y="26.41">P</tspan><tspan x="34.16" y="26.41">EN</tspan></text></svg>