<svg xmlns="http://www.w3.org/2000/svg" xmlns:xlink="http://www.w3.org/1999/xlink" viewBox="0 0 1253 565"><defs><style>.cls-1,.cls-13{fill:none;}.cls-2{fill:#fff;}.cls-3{isolation:isolate;}.cls-4{clip-path:url(#clip-path);}.cls-5{opacity:0.49;fill:url(#Unnamed_Pattern_4);}.cls-10,.cls-12,.cls-17,.cls-18,.cls-5{mix-blend-mode:overlay;}.cls-6{fill:url(#Degradado_sin_nombre_3);}.cls-7{fill:url(#Degradado_sin_nombre_3-2);}.cls-8{fill:url(#Degradado_sin_nombre_185);}.cls-12,.cls-9{opacity:0.78;}.cls-9{fill:url(#Degradado_sin_nombre_184);}.cls-10{opacity:0.4;fill:url(#Degradado_sin_nombre_1074);}.cls-11,.cls-14,.cls-15,.cls-16{opacity:0.92;}.cls-11{fill:url(#Degradado_sin_nombre_183);}.cls-12{fill:url(#Degradado_sin_nombre_1074-2);}.cls-13{stroke-miterlimit:10;stroke-width:2.15px;opacity:0.63;stroke:url(#Degradado_sin_nombre_182);}.cls-14{fill:url(#Degradado_sin_nombre_181);}.cls-15{fill:url(#Degradado_sin_nombre_181-2);}.cls-16{fill:url(#Degradado_sin_nombre_180);}.cls-17,.cls-18{opacity:0.47;}.cls-17{fill:url(#Unnamed_Pattern_3);}.cls-18{fill:url(#Unnamed_Pattern_3-3);}</style><clipPath id="clip-path"><rect class="cls-1" y="0.26" width="1921.41" height="1079.74"/></clipPath><pattern id="Unnamed_Pattern_4" data-name="Unnamed Pattern 4" width="7.83" height="10" patternTransform="translate(140.33 -98)" patternUnits="userSpaceOnUse" viewBox="0 0 7.83 10"><rect class="cls-1" width="7.83" height="10"/><circle class="cls-2" cx="5.42" cy="11" r="1.5"/><circle class="cls-2" cx="1.5" cy="6" r="1.5"/><circle class="cls-2" cx="5.42" cy="1" r="1.5"/></pattern><linearGradient id="Degradado_sin_nombre_3" x1="-1468.62" y1="6366.55" x2="-1332.8" y2="6667.13" gradientTransform="translate(-891.51 6738.73) rotate(180)" gradientUnits="userSpaceOnUse"><stop offset="0" stop-color="#3f297d"/><stop offset="0.2" stop-color="#322065"/><stop offset="0.54" stop-color="#1e1242"/><stop offset="0.82" stop-color="#120a2d"/><stop offset="1" stop-color="#0e0725"/></linearGradient><linearGradient id="Degradado_sin_nombre_3-2" x1="-1302.01" y1="6490.78" x2="-1225.16" y2="6698.58" xlink:href="#Degradado_sin_nombre_3"/><linearGradient id="Degradado_sin_nombre_185" x1="-1364.64" y1="6523.64" x2="-1298.37" y2="6836.47" gradientTransform="translate(-891.51 6738.73) rotate(180)" gradientUnits="userSpaceOnUse"><stop offset="0" stop-color="#ff1bb0"/><stop offset="0.08" stop-color="#d21ba2"/><stop offset="0.18" stop-color="#a31b93"/><stop offset="0.28" stop-color="#7e1b88"/><stop offset="0.37" stop-color="#641b80"/><stop offset="0.45" stop-color="#541b7b"/><stop offset="0.51" stop-color="#4e1b79"/><stop offset="1" stop-color="#4e1b79" stop-opacity="0"/></linearGradient><linearGradient id="Degradado_sin_nombre_184" x1="-1328.92" y1="6422.17" x2="-1220.25" y2="7112.89" gradientTransform="translate(-891.51 6738.73) rotate(180)" gradientUnits="userSpaceOnUse"><stop offset="0" stop-color="#ff1bb0"/><stop offset="0.51" stop-color="#4e1b79"/><stop offset="1" stop-color="#4e1b79" stop-opacity="0"/></linearGradient><linearGradient id="Degradado_sin_nombre_1074" x1="367.59" y1="226.01" x2="320.08" y2="25.9" gradientUnits="userSpaceOnUse"><stop offset="0" stop-color="#fff"/><stop offset="1" stop-color="#fff" stop-opacity="0"/></linearGradient><linearGradient id="Degradado_sin_nombre_183" x1="-1206.55" y1="6648.72" x2="-866.8" y2="7149.3" gradientTransform="translate(-891.51 6738.73) rotate(180)" gradientUnits="userSpaceOnUse"><stop offset="0" stop-color="#ff1bb0"/><stop offset="0.29" stop-color="#ff1bb0"/><stop offset="0.36" stop-color="#fa1baf" stop-opacity="0.97"/><stop offset="0.45" stop-color="#ed1baa" stop-opacity="0.9"/><stop offset="0.55" stop-color="#d71ba4" stop-opacity="0.77"/><stop offset="0.67" stop-color="#b81b9a" stop-opacity="0.6"/><stop offset="0.81" stop-color="#911b8e" stop-opacity="0.38"/><stop offset="0.94" stop-color="#621b7f" stop-opacity="0.11"/><stop offset="1" stop-color="#4e1b79" stop-opacity="0"/></linearGradient><linearGradient id="Degradado_sin_nombre_1074-2" x1="-1221.96" y1="6648.56" x2="-1112.89" y2="6809.26" gradientTransform="translate(-891.51 6738.73) rotate(180)" xlink:href="#Degradado_sin_nombre_1074"/><linearGradient id="Degradado_sin_nombre_182" x1="-998.81" y1="6513.52" x2="-998.81" y2="6817.64" gradientTransform="matrix(-1, -0.05, 0.05, -1, -1047.07, 6616.6)" gradientUnits="userSpaceOnUse"><stop offset="0" stop-color="#ff0079" stop-opacity="0.1"/><stop offset="0.35" stop-color="#ff1bb0"/><stop offset="1" stop-color="#ffa6e0"/></linearGradient><linearGradient id="Degradado_sin_nombre_181" x1="-967.3" y1="6411.32" x2="-967.3" y2="6466.41" gradientTransform="translate(-5155.69 4171.11) rotate(-135)" gradientUnits="userSpaceOnUse"><stop offset="0" stop-color="#ff1bb0"/><stop offset="0.24" stop-color="#c51b9e"/><stop offset="0.49" stop-color="#921b8e"/><stop offset="0.7" stop-color="#6d1b83"/><stop offset="0.87" stop-color="#561b7c"/><stop offset="0.98" stop-color="#4e1b79"/></linearGradient><linearGradient id="Degradado_sin_nombre_181-2" x1="-1164.33" y1="6469.69" x2="-1164.33" y2="6509.88" gradientTransform="translate(-891.51 6738.73) rotate(180)" xlink:href="#Degradado_sin_nombre_181"/><linearGradient id="Degradado_sin_nombre_180" x1="706.11" y1="151.59" x2="693.66" y2="91.02" gradientUnits="userSpaceOnUse"><stop offset="0" stop-color="#ff9edd"/><stop offset="0.16" stop-color="#f67fcf"/><stop offset="0.43" stop-color="#e854bb"/><stop offset="0.66" stop-color="#df35ad"/><stop offset="0.86" stop-color="#d922a4"/><stop offset="1" stop-color="#d71ba1"/></linearGradient><pattern id="Unnamed_Pattern_3" data-name="Unnamed Pattern 3" width="18.99" height="18.74" patternTransform="translate(241.92 -111.26)" patternUnits="userSpaceOnUse" viewBox="0 0 18.99 18.74"><rect class="cls-1" width="18.99" height="18.74"/><polygon class="cls-2" points="19 18.74 0 24.99 0 22.99 19 16.74 19 18.74"/><polygon class="cls-2" points="0.01 18.74 -18.99 24.99 -18.99 22.99 0.01 16.74 0.01 18.74"/><polygon class="cls-2" points="19 12.49 0 18.74 0 16.74 19 10.49 19 12.49"/><polygon class="cls-2" points="0.01 12.49 -18.99 18.74 -18.99 16.74 0.01 10.49 0.01 12.49"/><polygon class="cls-2" points="19 6.24 0 12.49 0 10.49 19 4.24 19 6.24"/><polygon class="cls-2" points="0.01 6.24 -18.99 12.49 -18.99 10.49 0.01 4.24 0.01 6.24"/><polygon class="cls-2" points="19 0 0 6.25 0 4.25 19 -2 19 0"/><polygon class="cls-2" points="0.01 0 -18.99 6.25 -18.99 4.25 0.01 -2 0.01 0"/></pattern><pattern id="Unnamed_Pattern_3-3" data-name="Unnamed Pattern 3" width="18.99" height="18.74" patternTransform="translate(258.16 -120.82)" patternUnits="userSpaceOnUse" viewBox="0 0 18.99 18.74"><rect class="cls-1" width="18.99" height="18.74"/><polygon class="cls-2" points="19 18.74 0 24.99 0 22.99 19 16.74 19 18.74"/><polygon class="cls-2" points="0.01 18.74 -18.99 24.99 -18.99 22.99 0.01 16.74 0.01 18.74"/><polygon class="cls-2" points="19 12.49 0 18.74 0 16.74 19 10.49 19 12.49"/><polygon class="cls-2" points="0.01 12.49 -18.99 18.74 -18.99 16.74 0.01 10.49 0.01 12.49"/><polygon class="cls-2" points="19 6.24 0 12.49 0 10.49 19 4.24 19 6.24"/><polygon class="cls-2" points="0.01 6.24 -18.99 12.49 -18.99 10.49 0.01 4.24 0.01 6.24"/><polygon class="cls-2" points="19 0 0 6.25 0 4.25 19 -2 19 0"/><polygon class="cls-2" points="0.01 0 -18.99 6.25 -18.99 4.25 0.01 -2 0.01 0"/></pattern></defs><g class="cls-3"><g id="Layer_1" data-name="Layer 1"><g class="cls-4"><path class="cls-5" d="M-22,482.85c82.3-8.89,161.31-45.06,222.44-100.77,49.77-45.35,88.94-103.51,147-137.61,136-79.87,292.41,1.61,436.29-3.59C1168.28,227,1312.14-98.58,1312.14-98.58L-95.12-214.91l-28.18,109V481.37A417.13,417.13,0,0,0-22,482.85Z"/><path class="cls-6" d="M119.73,429.13c63.81-66.08,100.74-157.32,181.55-204,57.78-33.38,129-38.13,196.69-35.33s139.82,6.75,207.44,3.64C1068.56,176.69,1157.84-175,1157.84-175H-177.53V534.51C-68.47,543.49,45.71,505.78,119.73,429.13Z"/><path class="cls-7" d="M-177.53,448.47c47.36,8.79,99.42,3,144.68-13.23,69.17-24.78,125.36-70.31,176.68-117.4s100-97.18,160.82-134.95c72.79-45.24,161.54-71.06,251.2-73.08,56.45-1.27,113.38,6.61,169.15-1,88-12,167-65,202.28-135.67V-145.2H-177.53Z"/><path class="cls-8" d="M-87.87,376.4C-58.72,335-36.54,288.73,8.78,257.27,65.43,218,146.48,209.7,222.28,206S377.86,200.67,443,170.37c38.72-18,72.32-46.27,107.23-70.15C650,32,764.41,61.56,875.64,54.22c165.44-10.92,219.65-211.94,219.65-211.94H-177.53V453.39C-139.14,437.4-109.38,407-87.87,376.4Z"/><path class="cls-9" d="M-148.27,313.18c3.18,2.89,5.58,21.68,12.47,20.13,34.7-7.81,65.29-39.75,84.72-76.56,13.55-25.69,42.43-108,134.45-102.33,37.19,2.3,195.7,52.62,231.5,58.76,108.62,18.64,199.13-6,271.84-75.91,54.75-52.62,106.74-106.22,161-158.69,54-52.19,122.85-97.72,199.53-97.89v-50.92H-143.18q-.63,41.19-1.25,82.37l-2.7,177.38q-1.27,84.09-2.56,168.18-.36,24-.73,48.07C-150.47,309.6-149.68,311.9-148.27,313.18Z"/><path class="cls-10" d="M-177.53-181.46V243.66a3.73,3.73,0,0,0,3.17.81c35.21-7.8,66.25-39.75,86-76.56,13.76-25.69,43.07-108,136.45-102.34C85.79,67.88,246.65,118.2,283,124.34c110.22,18.64,202.07-6,275.85-75.92C614.39-4.2,667.15-57.81,722.24-110.28c28.81-27.44,61.8-53,97.91-71.18Z"/><path class="cls-11" d="M-177.53,125.4c27.38-35.6,78.07-55.53,125.37-58.49C-5.35,64,41.21,73,87.77,78.26c100,11.31,207.24,3.82,291.5-45.74C469.09-20.3,526.2-116.55,627.64-148.16c7.69-2.39,16.5-4.22,24.24-7.35a43.17,43.17,0,0,0,9.59-5.17c-2.86-2.63-2.87-1.3-5.93-2.33-15.56-5.25-44.94,0-61.38,0H-177.53Z"/><path class="cls-12" d="M-181.6,79.82c28.71-26.54,71.64-41.47,112.08-44C-22.7,32.9,23.86,41.91,70.41,47.18c100,11.3,207.25,3.82,291.51-45.74,89.81-52.82,146.93-149.08,248.37-180.69,7.69-2.39,16.5-4.22,24.24-7.34a43.84,43.84,0,0,0,9.59-5.18c-2.87-2.63-2.87-1.29-5.93-2.33-15.56-5.25-44.94,0-61.39,0H-181.6Z"/><path class="cls-13" d="M-181.63,135.77c30.06-45.3,92.82-68.47,150.09-69.43,52.16-.87,103.43,11.6,154.88,19.87C250.45,106.66,336.77,110,449.58,50c91-48.36,155.13-136.27,248.34-176.53"/><circle class="cls-14" cx="75.79" cy="307.61" r="19.81" transform="translate(-195.31 143.69) rotate(-45)"/><circle class="cls-15" cx="272.82" cy="256.53" r="12.51"/><circle class="cls-16" cx="699.18" cy="117.88" r="19.81"/><circle class="cls-17" cx="81.85" cy="496.94" r="56.15"/><circle class="cls-18" cx="1101.13" cy="233.48" r="56.15"/><path class="cls-2" d="M46.82,45.56a4.89,4.89,0,1,0,4.88,4.89A4.89,4.89,0,0,0,46.82,45.56Z"/><path class="cls-2" d="M68.7,55.33a4.89,4.89,0,1,0-4.88-4.88A4.89,4.89,0,0,0,68.7,55.33Z"/><path class="cls-2" d="M46.82,70.42a4.89,4.89,0,1,0,4.88,4.89A4.9,4.9,0,0,0,46.82,70.42Z"/><path class="cls-2" d="M68.7,70.42a4.89,4.89,0,1,0,4.88,4.89A4.9,4.9,0,0,0,68.7,70.42Z"/><path class="cls-2" d="M46.82,95.29a4.88,4.88,0,1,0,4.88,4.88A4.89,4.89,0,0,0,46.82,95.29Z"/><path class="cls-2" d="M68.7,95.29a4.88,4.88,0,1,0,4.88,4.88A4.89,4.89,0,0,0,68.7,95.29Z"/><path class="cls-2" d="M46.82,120.15A4.89,4.89,0,1,0,51.7,125,4.89,4.89,0,0,0,46.82,120.15Z"/><path class="cls-2" d="M68.7,120.15A4.89,4.89,0,1,0,73.58,125,4.89,4.89,0,0,0,68.7,120.15Z"/><path class="cls-2" d="M46.82,145a4.89,4.89,0,1,0,4.88,4.89A4.89,4.89,0,0,0,46.82,145Z"/><path class="cls-2" d="M68.7,145a4.89,4.89,0,1,0,4.88,4.89A4.89,4.89,0,0,0,68.7,145Z"/><path class="cls-2" d="M46.82,169.88a4.88,4.88,0,1,0,4.88,4.88A4.89,4.89,0,0,0,46.82,169.88Z"/><path class="cls-2" d="M68.7,169.88a4.88,4.88,0,1,0,4.88,4.88A4.89,4.89,0,0,0,68.7,169.88Z"/><path class="cls-2" d="M46.82,194.74a4.88,4.88,0,1,0,4.88,4.88A4.89,4.89,0,0,0,46.82,194.74Z"/><path class="cls-2" d="M68.7,194.74a4.88,4.88,0,1,0,4.88,4.88A4.89,4.89,0,0,0,68.7,194.74Z"/></g></g></g></svg>