<svg xmlns="http://www.w3.org/2000/svg" xmlns:xlink="http://www.w3.org/1999/xlink" viewBox="0 0 1920 1080"><defs><style>.cls-1,.cls-14,.cls-27,.cls-36{fill:none;}.cls-2{fill:#fff;}.cls-3{isolation:isolate;}.cls-4{clip-path:url(#clip-path);}.cls-5{opacity:0.55;fill:url(#Degradado_sin_nombre_191);}.cls-6{opacity:0.59;fill:url(#Unnamed_Pattern_4);}.cls-11,.cls-13,.cls-19,.cls-24,.cls-26,.cls-31,.cls-32,.cls-33,.cls-34,.cls-35,.cls-6{mix-blend-mode:overlay;}.cls-7{fill:url(#Degradado_sin_nombre_191-2);}.cls-8{fill:url(#Degradado_sin_nombre_3);}.cls-9{fill:url(#Degradado_sin_nombre_190);}.cls-10,.cls-13,.cls-23,.cls-26{opacity:0.78;}.cls-10{fill:url(#Degradado_sin_nombre_184);}.cls-11{opacity:0.68;fill:url(#Degradado_sin_nombre_1074);}.cls-12,.cls-15,.cls-16,.cls-17,.cls-18,.cls-25,.cls-28,.cls-29,.cls-30{opacity:0.92;}.cls-12{fill:url(#Degradado_sin_nombre_187);}.cls-13{fill:url(#Degradado_sin_nombre_1074-2);}.cls-14,.cls-27,.cls-36{stroke-miterlimit:10;}.cls-14{stroke-width:2.13px;stroke:url(#Degradado_sin_nombre_182);}.cls-14,.cls-27{opacity:0.63;}.cls-15{fill:url(#Degradado_sin_nombre_188);}.cls-16{fill:url(#Degradado_sin_nombre_181);}.cls-17{fill:url(#Degradado_sin_nombre_188-2);}.cls-18{fill:url(#Degradado_sin_nombre_187-2);}.cls-19{opacity:0.49;fill:url(#Unnamed_Pattern_4-3);}.cls-20{fill:url(#Degradado_sin_nombre_3-2);}.cls-21{fill:url(#Degradado_sin_nombre_3-3);}.cls-22{fill:url(#Degradado_sin_nombre_185);}.cls-23{fill:url(#Degradado_sin_nombre_184-2);}.cls-24{opacity:0.4;fill:url(#Degradado_sin_nombre_1074-3);}.cls-25{fill:url(#Degradado_sin_nombre_183);}.cls-26{fill:url(#Degradado_sin_nombre_1074-4);}.cls-27{stroke-width:2.15px;stroke:url(#Degradado_sin_nombre_182-2);}.cls-28{fill:url(#Degradado_sin_nombre_181-2);}.cls-29{fill:url(#Degradado_sin_nombre_181-3);}.cls-30{fill:url(#Degradado_sin_nombre_180);}.cls-31,.cls-32,.cls-33,.cls-34{opacity:0.47;}.cls-31{fill:url(#Unnamed_Pattern_3);}.cls-32{fill:url(#Unnamed_Pattern_3-3);}.cls-33{fill:url(#Unnamed_Pattern_3-5);}.cls-34{fill:url(#Unnamed_Pattern_3-7);}.cls-36{stroke:#fff;stroke-width:0.91px;}</style><clipPath id="clip-path"><rect class="cls-1" y="0.26" width="1921.41" height="1079.74"/></clipPath><linearGradient id="Degradado_sin_nombre_191" x1="1069.54" y1="560.12" x2="1107.86" y2="885.04" gradientUnits="userSpaceOnUse"><stop offset="0" stop-color="#360076"/><stop offset="1" stop-color="#140034"/></linearGradient><pattern id="Unnamed_Pattern_4" data-name="Unnamed Pattern 4" width="7.83" height="10" patternTransform="translate(150.68 88.94) rotate(-179.26) scale(0.93)" patternUnits="userSpaceOnUse" viewBox="0 0 7.83 10"><rect class="cls-1" width="7.83" height="10"/><circle class="cls-2" cx="5.42" cy="11" r="1.5"/><circle class="cls-2" cx="1.5" cy="6" r="1.5"/><circle class="cls-2" cx="5.42" cy="1" r="1.5"/></pattern><linearGradient id="Degradado_sin_nombre_191-2" x1="1167.82" y1="768.68" x2="1237.62" y2="1026.97" xlink:href="#Degradado_sin_nombre_191"/><linearGradient id="Degradado_sin_nombre_3" x1="1335.81" y1="879.74" x2="1439.9" y2="1161.16" gradientUnits="userSpaceOnUse"><stop offset="0" stop-color="#3f297d"/><stop offset="0.2" stop-color="#322065"/><stop offset="0.54" stop-color="#1e1242"/><stop offset="0.82" stop-color="#120a2d"/><stop offset="1" stop-color="#0e0725"/></linearGradient><linearGradient id="Degradado_sin_nombre_190" x1="1248.43" y1="759.39" x2="1425.07" y2="1171.38" gradientUnits="userSpaceOnUse"><stop offset="0" stop-color="#ff1bb0"/><stop offset="0.16" stop-color="#c01b9c"/><stop offset="0.32" stop-color="#831b89"/><stop offset="0.45" stop-color="#5d1b7e"/><stop offset="0.51" stop-color="#4e1b79"/><stop offset="1" stop-color="#4e1b79" stop-opacity="0"/></linearGradient><linearGradient id="Degradado_sin_nombre_184" x1="1338.17" y1="741.4" x2="1443.76" y2="1412.53" gradientUnits="userSpaceOnUse"><stop offset="0" stop-color="#ff1bb0"/><stop offset="0.51" stop-color="#4e1b79"/><stop offset="1" stop-color="#4e1b79" stop-opacity="0"/></linearGradient><linearGradient id="Degradado_sin_nombre_1074" x1="1405.53" y1="785.44" x2="1491.96" y2="1087.94" gradientUnits="userSpaceOnUse"><stop offset="0" stop-color="#fff"/><stop offset="1" stop-color="#fff" stop-opacity="0"/></linearGradient><linearGradient id="Degradado_sin_nombre_187" x1="1454.21" y1="999.48" x2="1784.3" y2="1485.82" gradientUnits="userSpaceOnUse"><stop offset="0" stop-color="#ff1bb0"/><stop offset="0.29" stop-color="#ff1bb0"/><stop offset="0.35" stop-color="#fa1baf" stop-opacity="0.97"/><stop offset="0.44" stop-color="#ed1baa" stop-opacity="0.9"/><stop offset="0.55" stop-color="#d71ba4" stop-opacity="0.77"/><stop offset="0.67" stop-color="#b81b9a" stop-opacity="0.6"/><stop offset="0.8" stop-color="#911b8e" stop-opacity="0.38"/><stop offset="0.94" stop-color="#621b7f" stop-opacity="0.11"/><stop offset="1" stop-color="#4e1b79" stop-opacity="0"/></linearGradient><linearGradient id="Degradado_sin_nombre_1074-2" x1="1435.27" y1="989.51" x2="1541.24" y2="1145.64" xlink:href="#Degradado_sin_nombre_1074"/><linearGradient id="Degradado_sin_nombre_182" x1="1304.5" y1="992.12" x2="1304.5" y2="1287.57" gradientTransform="matrix(0.99, 0.06, -0.07, 1, 290.51, -139.27)" gradientUnits="userSpaceOnUse"><stop offset="0" stop-color="#ff0079" stop-opacity="0.1"/><stop offset="0.35" stop-color="#ff1bb0"/><stop offset="1" stop-color="#ffa6e0"/></linearGradient><linearGradient id="Degradado_sin_nombre_188" x1="1667.61" y1="722.25" x2="1667.61" y2="749.65" gradientTransform="translate(2136.07 -1020.71) rotate(80.81)" gradientUnits="userSpaceOnUse"><stop offset="0" stop-color="#ff9edd"/><stop offset="0.33" stop-color="#f172c9"/><stop offset="1" stop-color="#d71ba1"/></linearGradient><linearGradient id="Degradado_sin_nombre_181" x1="851.55" y1="969.74" x2="851.55" y2="1031.56" gradientUnits="userSpaceOnUse"><stop offset="0" stop-color="#ff1bb0"/><stop offset="0.24" stop-color="#c51b9e"/><stop offset="0.49" stop-color="#921b8e"/><stop offset="0.7" stop-color="#6d1b83"/><stop offset="0.87" stop-color="#561b7c"/><stop offset="0.98" stop-color="#4e1b79"/></linearGradient><linearGradient id="Degradado_sin_nombre_188-2" x1="1298.77" y1="962.48" x2="1298.77" y2="1013.81" gradientTransform="translate(2063.76 -454.35) rotate(80.81)" xlink:href="#Degradado_sin_nombre_188"/><linearGradient id="Degradado_sin_nombre_187-2" x1="1756.73" y1="903.07" x2="1756.73" y2="990.91" xlink:href="#Degradado_sin_nombre_187"/><pattern id="Unnamed_Pattern_4-3" data-name="Unnamed Pattern 4" width="7.83" height="10" patternTransform="translate(138.83 -93)" patternUnits="userSpaceOnUse" viewBox="0 0 7.83 10"><rect class="cls-1" width="7.83" height="10"/><circle class="cls-2" cx="5.42" cy="11" r="1.5"/><circle class="cls-2" cx="1.5" cy="6" r="1.5"/><circle class="cls-2" cx="5.42" cy="1" r="1.5"/></pattern><linearGradient id="Degradado_sin_nombre_3-2" x1="-1136.62" y1="7056.55" x2="-1000.8" y2="7357.13" gradientTransform="translate(-559.51 7428.73) rotate(180)" xlink:href="#Degradado_sin_nombre_3"/><linearGradient id="Degradado_sin_nombre_3-3" x1="-970.01" y1="7180.78" x2="-893.16" y2="7388.58" gradientTransform="translate(-559.51 7428.73) rotate(180)" xlink:href="#Degradado_sin_nombre_3"/><linearGradient id="Degradado_sin_nombre_185" x1="-1032.64" y1="7213.64" x2="-966.37" y2="7526.47" gradientTransform="translate(-559.51 7428.73) rotate(180)" gradientUnits="userSpaceOnUse"><stop offset="0" stop-color="#ff1bb0"/><stop offset="0.08" stop-color="#d21ba2"/><stop offset="0.18" stop-color="#a31b93"/><stop offset="0.28" stop-color="#7e1b88"/><stop offset="0.37" stop-color="#641b80"/><stop offset="0.45" stop-color="#541b7b"/><stop offset="0.51" stop-color="#4e1b79"/><stop offset="1" stop-color="#4e1b79" stop-opacity="0"/></linearGradient><linearGradient id="Degradado_sin_nombre_184-2" x1="-996.92" y1="7112.17" x2="-888.25" y2="7802.89" gradientTransform="translate(-559.51 7428.73) rotate(180)" xlink:href="#Degradado_sin_nombre_184"/><linearGradient id="Degradado_sin_nombre_1074-3" x1="367.59" y1="226.01" x2="320.08" y2="25.9" xlink:href="#Degradado_sin_nombre_1074"/><linearGradient id="Degradado_sin_nombre_183" x1="-874.55" y1="7338.72" x2="-534.8" y2="7839.3" gradientTransform="translate(-559.51 7428.73) rotate(180)" gradientUnits="userSpaceOnUse"><stop offset="0" stop-color="#ff1bb0"/><stop offset="0.29" stop-color="#ff1bb0"/><stop offset="0.36" stop-color="#fa1baf" stop-opacity="0.97"/><stop offset="0.45" stop-color="#ed1baa" stop-opacity="0.9"/><stop offset="0.55" stop-color="#d71ba4" stop-opacity="0.77"/><stop offset="0.67" stop-color="#b81b9a" stop-opacity="0.6"/><stop offset="0.81" stop-color="#911b8e" stop-opacity="0.38"/><stop offset="0.94" stop-color="#621b7f" stop-opacity="0.11"/><stop offset="1" stop-color="#4e1b79" stop-opacity="0"/></linearGradient><linearGradient id="Degradado_sin_nombre_1074-4" x1="-889.96" y1="7338.56" x2="-780.89" y2="7499.26" gradientTransform="translate(-559.51 7428.73) rotate(180)" xlink:href="#Degradado_sin_nombre_1074"/><linearGradient id="Degradado_sin_nombre_182-2" x1="-651.07" y1="7195.51" x2="-651.07" y2="7499.63" gradientTransform="matrix(-1, -0.05, 0.05, -1, -731.15, 7313.87)" xlink:href="#Degradado_sin_nombre_182"/><linearGradient id="Degradado_sin_nombre_181-2" x1="-635.3" y1="7101.32" x2="-635.3" y2="7156.41" gradientTransform="translate(-5408.83 4893.77) rotate(-135)" xlink:href="#Degradado_sin_nombre_181"/><linearGradient id="Degradado_sin_nombre_181-3" x1="-832.33" y1="7159.69" x2="-832.33" y2="7199.88" gradientTransform="translate(-559.51 7428.73) rotate(180)" xlink:href="#Degradado_sin_nombre_181"/><linearGradient id="Degradado_sin_nombre_180" x1="706.11" y1="151.59" x2="693.66" y2="91.02" gradientUnits="userSpaceOnUse"><stop offset="0" stop-color="#ff9edd"/><stop offset="0.16" stop-color="#f67fcf"/><stop offset="0.43" stop-color="#e854bb"/><stop offset="0.66" stop-color="#df35ad"/><stop offset="0.86" stop-color="#d922a4"/><stop offset="1" stop-color="#d71ba1"/></linearGradient><pattern id="Unnamed_Pattern_3" data-name="Unnamed Pattern 3" width="18.99" height="18.74" patternTransform="translate(306.52 -221.5) scale(1.12)" patternUnits="userSpaceOnUse" viewBox="0 0 18.99 18.74"><rect class="cls-1" width="18.99" height="18.74"/><polygon class="cls-2" points="19 18.74 0 24.99 0 22.99 19 16.74 19 18.74"/><polygon class="cls-2" points="0.01 18.74 -18.99 24.99 -18.99 22.99 0.01 16.74 0.01 18.74"/><polygon class="cls-2" points="19 12.49 0 18.74 0 16.74 19 10.49 19 12.49"/><polygon class="cls-2" points="0.01 12.49 -18.99 18.74 -18.99 16.74 0.01 10.49 0.01 12.49"/><polygon class="cls-2" points="19 6.24 0 12.49 0 10.49 19 4.24 19 6.24"/><polygon class="cls-2" points="0.01 6.24 -18.99 12.49 -18.99 10.49 0.01 4.24 0.01 6.24"/><polygon class="cls-2" points="19 0 0 6.25 0 4.25 19 -2 19 0"/><polygon class="cls-2" points="0.01 0 -18.99 6.25 -18.99 4.25 0.01 -2 0.01 0"/></pattern><pattern id="Unnamed_Pattern_3-3" data-name="Unnamed Pattern 3" width="18.99" height="18.74" patternTransform="translate(258.99 -120.08)" patternUnits="userSpaceOnUse" viewBox="0 0 18.99 18.74"><rect class="cls-1" width="18.99" height="18.74"/><polygon class="cls-2" points="19 18.74 0 24.99 0 22.99 19 16.74 19 18.74"/><polygon class="cls-2" points="0.01 18.74 -18.99 24.99 -18.99 22.99 0.01 16.74 0.01 18.74"/><polygon class="cls-2" points="19 12.49 0 18.74 0 16.74 19 10.49 19 12.49"/><polygon class="cls-2" points="0.01 12.49 -18.99 18.74 -18.99 16.74 0.01 10.49 0.01 12.49"/><polygon class="cls-2" points="19 6.24 0 12.49 0 10.49 19 4.24 19 6.24"/><polygon class="cls-2" points="0.01 6.24 -18.99 12.49 -18.99 10.49 0.01 4.24 0.01 6.24"/><polygon class="cls-2" points="19 0 0 6.25 0 4.25 19 -2 19 0"/><polygon class="cls-2" points="0.01 0 -18.99 6.25 -18.99 4.25 0.01 -2 0.01 0"/></pattern><pattern id="Unnamed_Pattern_3-5" data-name="Unnamed Pattern 3" width="18.99" height="18.74" patternTransform="translate(246.83 -100.21)" patternUnits="userSpaceOnUse" viewBox="0 0 18.99 18.74"><rect class="cls-1" width="18.99" height="18.74"/><polygon class="cls-2" points="19 18.74 0 24.99 0 22.99 19 16.74 19 18.74"/><polygon class="cls-2" points="0.01 18.74 -18.99 24.99 -18.99 22.99 0.01 16.74 0.01 18.74"/><polygon class="cls-2" points="19 12.49 0 18.74 0 16.74 19 10.49 19 12.49"/><polygon class="cls-2" points="0.01 12.49 -18.99 18.74 -18.99 16.74 0.01 10.49 0.01 12.49"/><polygon class="cls-2" points="19 6.24 0 12.49 0 10.49 19 4.24 19 6.24"/><polygon class="cls-2" points="0.01 6.24 -18.99 12.49 -18.99 10.49 0.01 4.24 0.01 6.24"/><polygon class="cls-2" points="19 0 0 6.25 0 4.25 19 -2 19 0"/><polygon class="cls-2" points="0.01 0 -18.99 6.25 -18.99 4.25 0.01 -2 0.01 0"/></pattern><pattern id="Unnamed_Pattern_3-7" data-name="Unnamed Pattern 3" width="18.99" height="18.74" patternTransform="translate(263.07 -109.77)" patternUnits="userSpaceOnUse" viewBox="0 0 18.99 18.74"><rect class="cls-1" width="18.99" height="18.74"/><polygon class="cls-2" points="19 18.74 0 24.99 0 22.99 19 16.74 19 18.74"/><polygon class="cls-2" points="0.01 18.74 -18.99 24.99 -18.99 22.99 0.01 16.74 0.01 18.74"/><polygon class="cls-2" points="19 12.49 0 18.74 0 16.74 19 10.49 19 12.49"/><polygon class="cls-2" points="0.01 12.49 -18.99 18.74 -18.99 16.74 0.01 10.49 0.01 12.49"/><polygon class="cls-2" points="19 6.24 0 12.49 0 10.49 19 4.24 19 6.24"/><polygon class="cls-2" points="0.01 6.24 -18.99 12.49 -18.99 10.49 0.01 4.24 0.01 6.24"/><polygon class="cls-2" points="19 0 0 6.25 0 4.25 19 -2 19 0"/><polygon class="cls-2" points="0.01 0 -18.99 6.25 -18.99 4.25 0.01 -2 0.01 0"/></pattern></defs><g class="cls-3"><g id="Layer_1" data-name="Layer 1"><g class="cls-4"><path class="cls-5" d="M179.35,985.64c66.14,74.49,183.78,80.95,277.27,46.56S626.44,941,707.78,883.49c118.3-83.66,201-162.44,345.52-172.76,78.36-5.6,152.57,25.18,227.48,42.89,70.35,16.64,147.4,12.74,211.35-23.34,50-28.22,88.16-73.45,121.23-120.42s62.4-96.85,100.54-139.8c33.2-37.4,74.24-69.81,122.52-82.84,34.06-9.2,70.41-8.1,104.37,1a177.59,177.59,0,0,1,42,16.7c6.79,3.86,37.92,20.69,38,29.38l6.59,681.32H169Z"/><path class="cls-6" d="M1893.1,538.61c-104.55,10.41-204.91,52.75-282.58,117.95-63.22,53.08-113,121.16-186.73,161.08-172.75,93.49-371.46-1.89-554.23,4.19C381,838.09,198.25,1219.18,198.25,1219.18L1986,1355.35s14.45-51.49,35.8-127.61V540.34A574.34,574.34,0,0,0,1893.1,538.61Z"/><path class="cls-7" d="M1834.36,624.11c-79.95,8.64-156.71,43.78-216.11,97.9-48.35,44.06-86.4,100.57-142.81,133.7-132.12,77.6-284.09-1.56-423.87,3.48-373.65,13.49-358.91,235.93-583.5,259.68C330.58,1133.41,1905.38,1302,1905.38,1302s11-42.73,27.38-105.92V625.55A405.06,405.06,0,0,0,1834.36,624.11Z"/><path class="cls-8" d="M1906.77,684c-46-8.54-96.59-2.9-140.56,12.85-67.21,24.08-121.8,68.31-171.65,114.07s-97.2,94.41-156.25,131.11c-70.72,44-157,69-244.06,71-54.84,1.23-110.15-6.42-164.33,1-85.5,11.68-162.27,63.17-196.53,131.8v115H1906.77Z"/><path class="cls-9" d="M1761.05,839.94c-55.13,38.07-139.31,45.06-213,48.62s-151.15,5.21-214.48,34.65c-37.62,17.48-70.26,44.95-104.18,68.16-77.85,53.26-172,43.84-261.43,43-72.78-.65-140.59,15.13-191.58,70.09-33.66,36.28-58.63,81.92-73.88,128.93-.92,2.82-1.85,5.66-2.62,8.53H1936.53V602.4C1834.47,600.24,1851.75,777.31,1761.05,839.94Z"/><path class="cls-10" d="M1932.52,787.42c-3.2-2.81-5.61-21.06-12.54-19.56-34.89,7.59-65.65,38.62-85.19,74.39-13.63,25-42.68,105-135.21,99.41-37.39-2.23-196.79-51.12-232.79-57.09-109.23-18.11-200.24,5.86-273.35,73.76-55.06,51.12-107.34,103.2-161.93,154.17-54.3,50.71-123.53,94.94-200.64,95.11v49.47H1927.4l1.26-80q1.35-86.16,2.71-172.33,1.29-81.71,2.57-163.4.38-23.34.74-46.7C1934.73,790.9,1933.94,788.67,1932.52,787.42Z"/><path class="cls-11" d="M2042.34,1263.22v-413a4.67,4.67,0,0,0-3.55-.79c-39.48,7.59-74.28,38.63-96.39,74.39-15.43,25-48.29,105-153,99.42-42.31-2.23-222.67-51.13-263.4-57.09-123.59-18.11-226.57,5.86-309.29,73.75-62.3,51.14-121.45,103.21-183.22,154.19-32.31,26.66-69.29,51.53-109.78,69.15Z"/><path class="cls-12" d="M1932.76,965.09c-26.59,34.6-75.84,54-121.79,56.83-45.48,2.84-90.72-5.91-136-11-97.12-11-201.35-3.71-283.22,44.44-87.26,51.32-142.75,144.84-241.3,175.55-7.47,2.32-16,4.1-23.55,7.13a42.67,42.67,0,0,0-9.32,5c2.78,2.56,2.79,1.26,5.76,2.26,15.12,5.11,43.67,0,59.64,0h749.73Z"/><path class="cls-13" d="M1932.76,999.57c-27.89,25.77-69.6,40.28-108.89,42.74-45.49,2.84-90.72-5.92-135.95-11-97.12-11-201.35-3.71-283.22,44.44-87.26,51.31-142.75,144.83-241.31,175.54-7.46,2.33-16,4.1-23.55,7.14a41.93,41.93,0,0,0-9.31,5c2.78,2.56,2.79,1.27,5.76,2.27,15.12,5.1,43.67,0,59.64,0h736.83Z"/><path class="cls-14" d="M1933.78,963.11c-29.71,43.46-90.35,64.84-145.31,64.74-50-.09-99-13.11-148.18-22.08-105.62-19.24-220.39-18.58-313.63,29.35-88.19,45.34-151.42,129.58-241.6,167"/><circle class="cls-15" cx="1667.61" cy="744.4" r="19.24" transform="translate(666.39 2271.69) rotate(-80.81)"/><circle class="cls-16" cx="851.55" cy="988.99" r="19.24"/><circle class="cls-17" cx="1298.77" cy="985.1" r="19.24" transform="translate(118.85 2109.84) rotate(-80.81)"/><circle class="cls-18" cx="1756.73" cy="930.41" r="27.35"/><path class="cls-19" d="M-22,482.85c82.3-8.89,161.31-45.06,222.44-100.77,49.77-45.35,88.94-103.51,147-137.61,136-79.87,292.41,1.61,436.29-3.59C1168.28,227,1312.14-98.58,1312.14-98.58L-95.12-214.91l-28.18,109V481.37A417.13,417.13,0,0,0-22,482.85Z"/><path class="cls-20" d="M119.73,429.13c63.81-66.08,100.74-157.32,181.55-204,57.78-33.38,129-38.13,196.69-35.33s139.82,6.75,207.44,3.64C1068.56,176.69,1157.84-175,1157.84-175H-177.53V534.51C-68.47,543.49,45.71,505.78,119.73,429.13Z"/><path class="cls-21" d="M-177.53,448.47c47.36,8.79,99.42,3,144.68-13.23,69.17-24.78,125.36-70.31,176.68-117.4s100-97.18,160.82-134.95c72.79-45.24,161.54-71.06,251.2-73.08,56.45-1.27,113.38,6.61,169.15-1,88-12,167-65,202.28-135.67V-145.2H-177.53Z"/><path class="cls-22" d="M-87.87,376.4C-58.72,335-36.54,288.73,8.78,257.27,65.43,218,146.48,209.7,222.28,206S377.86,200.67,443,170.37c38.72-18,72.32-46.27,107.23-70.15C650,32,764.41,61.56,875.64,54.22c165.44-10.92,219.65-211.94,219.65-211.94H-177.53V453.39C-139.14,437.4-109.38,407-87.87,376.4Z"/><path class="cls-23" d="M-148.27,313.18c3.18,2.89,5.58,21.68,12.47,20.13,34.7-7.81,65.29-39.75,84.72-76.56,13.55-25.69,42.43-108,134.45-102.33,37.19,2.3,195.7,52.62,231.5,58.76,108.62,18.64,199.13-6,271.84-75.91,54.75-52.62,106.74-106.22,161-158.69,54-52.19,122.85-97.72,199.53-97.89v-50.92H-143.18q-.63,41.19-1.25,82.37l-2.7,177.38q-1.27,84.09-2.56,168.18-.36,24-.73,48.07C-150.47,309.6-149.68,311.9-148.27,313.18Z"/><path class="cls-24" d="M-177.53-181.46V243.66a3.73,3.73,0,0,0,3.17.81c35.21-7.8,66.25-39.75,86-76.56,13.76-25.69,43.07-108,136.45-102.34C85.79,67.88,246.65,118.2,283,124.34c110.22,18.64,202.07-6,275.85-75.92C614.39-4.2,667.15-57.81,722.24-110.28c28.81-27.44,61.8-53,97.91-71.18Z"/><path class="cls-25" d="M-177.53,125.4c27.38-35.6,78.07-55.53,125.37-58.49C-5.35,64,41.21,73,87.77,78.26c100,11.31,207.24,3.82,291.5-45.74C469.09-20.3,526.2-116.55,627.64-148.16c7.69-2.39,16.5-4.22,24.24-7.35a43.17,43.17,0,0,0,9.59-5.17c-2.86-2.63-2.87-1.3-5.93-2.33-15.56-5.25-44.94,0-61.38,0H-177.53Z"/><path class="cls-26" d="M-181.6,79.82c28.71-26.54,71.64-41.47,112.08-44C-22.7,32.9,23.86,41.91,70.41,47.18c100,11.3,207.25,3.82,291.51-45.74,89.81-52.82,146.93-149.08,248.37-180.69,7.69-2.39,16.5-4.22,24.24-7.34a43.84,43.84,0,0,0,9.59-5.18c-2.87-2.63-2.87-1.29-5.93-2.33-15.56-5.25-44.94,0-61.39,0H-181.6Z"/><path class="cls-27" d="M-181.63,135.77c30.06-45.3,92.82-68.47,150.09-69.43,52.16-.87,103.43,11.6,154.88,19.87C250.45,106.66,336.77,110,449.58,50c91-48.36,155.13-136.27,248.34-176.53"/><circle class="cls-28" cx="75.79" cy="307.61" r="19.81" transform="translate(-195.31 143.69) rotate(-45)"/><circle class="cls-29" cx="272.82" cy="256.53" r="12.51"/><circle class="cls-30" cx="699.18" cy="117.88" r="19.81"/><circle class="cls-31" cx="1783.64" cy="414.24" r="62.63"/><circle class="cls-32" cx="764.25" cy="939.63" r="56.15"/><circle class="cls-33" cx="81.85" cy="496.94" r="56.15"/><circle class="cls-34" cx="1101.13" cy="233.48" r="56.15"/><g class="cls-35"><path class="cls-36" d="M-93.06,830.9c9.44,0,9.44,8,18.89,8s9.45-8,18.9-8,9.44,8,18.89,8,9.45-8,18.89-8,9.45,8,18.89,8,9.45-8,18.89-8,9.45,8,18.9,8,9.45-8,18.89-8,9.45,8,18.9,8,9.44-8,18.89-8,9.45,8,18.9,8,9.45-8,18.89-8,9.45,8,18.9,8,9.45-8,18.9-8,9.45,8,18.9,8,9.45-8,18.9-8"/></g><g class="cls-35"><path class="cls-36" d="M-93.06,859c9.44,0,9.44,8,18.89,8s9.45-8,18.9-8,9.44,8,18.89,8,9.45-8,18.89-8S-8,867,1.4,867s9.45-8,18.89-8,9.45,8,18.9,8,9.45-8,18.89-8,9.45,8,18.9,8,9.44-8,18.89-8,9.45,8,18.9,8,9.45-8,18.89-8,9.45,8,18.9,8,9.45-8,18.9-8,9.45,8,18.9,8,9.45-8,18.9-8"/></g><g class="cls-35"><path class="cls-36" d="M1564-88.28c0,9.45-8,9.45-8,18.89s8,9.45,8,18.9-8,9.44-8,18.89,8,9.45,8,18.89-8,9.45-8,18.89,8,9.45,8,18.9-8,9.44-8,18.89,8,9.45,8,18.89-8,9.45-8,18.9,8,9.45,8,18.89-8,9.45-8,18.9,8,9.45,8,18.89-8,9.45-8,18.9,8,9.45,8,18.9-8,9.45-8,18.9,8,9.45,8,18.91"/></g><g class="cls-35"><path class="cls-36" d="M1531.63-88.28c0,9.45-8,9.45-8,18.89s8,9.45,8,18.9-8,9.44-8,18.89,8,9.45,8,18.89-8,9.45-8,18.89,8,9.45,8,18.9-8,9.44-8,18.89,8,9.45,8,18.89-8,9.45-8,18.9,8,9.45,8,18.89-8,9.45-8,18.9,8,9.45,8,18.89-8,9.45-8,18.9,8,9.45,8,18.9-8,9.45-8,18.9,8,9.45,8,18.91"/></g><path class="cls-2" d="M1854.7,873a4.89,4.89,0,1,0,4.88,4.89A4.89,4.89,0,0,0,1854.7,873Z"/><path class="cls-2" d="M1876.59,882.73a4.89,4.89,0,1,0-4.88-4.88A4.89,4.89,0,0,0,1876.59,882.73Z"/><path class="cls-2" d="M1854.7,897.83a4.88,4.88,0,1,0,4.88,4.88A4.89,4.89,0,0,0,1854.7,897.83Z"/><path class="cls-2" d="M1876.59,897.83a4.88,4.88,0,1,0,4.88,4.88A4.89,4.89,0,0,0,1876.59,897.83Z"/><path class="cls-2" d="M1854.7,922.69a4.88,4.88,0,1,0,4.88,4.88A4.89,4.89,0,0,0,1854.7,922.69Z"/><path class="cls-2" d="M1876.59,922.69a4.88,4.88,0,1,0,4.88,4.88A4.89,4.89,0,0,0,1876.59,922.69Z"/><path class="cls-2" d="M1854.7,947.55a4.89,4.89,0,1,0,4.88,4.89A4.9,4.9,0,0,0,1854.7,947.55Z"/><path class="cls-2" d="M1876.59,947.55a4.89,4.89,0,1,0,4.88,4.89A4.9,4.9,0,0,0,1876.59,947.55Z"/><path class="cls-2" d="M1854.7,972.42a4.88,4.88,0,1,0,4.88,4.88A4.89,4.89,0,0,0,1854.7,972.42Z"/><path class="cls-2" d="M1876.59,972.42a4.88,4.88,0,1,0,4.88,4.88A4.89,4.89,0,0,0,1876.59,972.42Z"/><path class="cls-2" d="M1854.7,997.28a4.88,4.88,0,1,0,4.88,4.88A4.89,4.89,0,0,0,1854.7,997.28Z"/><path class="cls-2" d="M1876.59,997.28a4.88,4.88,0,1,0,4.88,4.88A4.89,4.89,0,0,0,1876.59,997.28Z"/><path class="cls-2" d="M1854.7,1022.14a4.89,4.89,0,1,0,4.88,4.89A4.89,4.89,0,0,0,1854.7,1022.14Z"/><path class="cls-2" d="M1876.59,1022.14a4.89,4.89,0,1,0,4.88,4.89A4.89,4.89,0,0,0,1876.59,1022.14Z"/><path class="cls-2" d="M46.82,45.56a4.89,4.89,0,1,0,4.88,4.89A4.89,4.89,0,0,0,46.82,45.56Z"/><path class="cls-2" d="M68.7,55.33a4.89,4.89,0,1,0-4.88-4.88A4.89,4.89,0,0,0,68.7,55.33Z"/><path class="cls-2" d="M46.82,70.42a4.89,4.89,0,1,0,4.88,4.89A4.9,4.9,0,0,0,46.82,70.42Z"/><path class="cls-2" d="M68.7,70.42a4.89,4.89,0,1,0,4.88,4.89A4.9,4.9,0,0,0,68.7,70.42Z"/><path class="cls-2" d="M46.82,95.29a4.88,4.88,0,1,0,4.88,4.88A4.89,4.89,0,0,0,46.82,95.29Z"/><path class="cls-2" d="M68.7,95.29a4.88,4.88,0,1,0,4.88,4.88A4.89,4.89,0,0,0,68.7,95.29Z"/><path class="cls-2" d="M46.82,120.15A4.89,4.89,0,1,0,51.7,125,4.89,4.89,0,0,0,46.82,120.15Z"/><path class="cls-2" d="M68.7,120.15A4.89,4.89,0,1,0,73.58,125,4.89,4.89,0,0,0,68.7,120.15Z"/><path class="cls-2" d="M46.82,145a4.89,4.89,0,1,0,4.88,4.89A4.89,4.89,0,0,0,46.82,145Z"/><path class="cls-2" d="M68.7,145a4.89,4.89,0,1,0,4.88,4.89A4.89,4.89,0,0,0,68.7,145Z"/><path class="cls-2" d="M46.82,169.88a4.88,4.88,0,1,0,4.88,4.88A4.89,4.89,0,0,0,46.82,169.88Z"/><path class="cls-2" d="M68.7,169.88a4.88,4.88,0,1,0,4.88,4.88A4.89,4.89,0,0,0,68.7,169.88Z"/><path class="cls-2" d="M46.82,194.74a4.88,4.88,0,1,0,4.88,4.88A4.89,4.89,0,0,0,46.82,194.74Z"/><path class="cls-2" d="M68.7,194.74a4.88,4.88,0,1,0,4.88,4.88A4.89,4.89,0,0,0,68.7,194.74Z"/></g></g></g></svg>