<svg xmlns="http://www.w3.org/2000/svg" xmlns:xlink="http://www.w3.org/1999/xlink" viewBox="0 0 1920 1080"><defs><style>.cls-1,.cls-14,.cls-22{fill:none;}.cls-2{fill:#fff;}.cls-3{isolation:isolate;}.cls-4{clip-path:url(#clip-path);}.cls-5{opacity:0.55;fill:url(#Degradado_sin_nombre_191);}.cls-6{opacity:0.59;fill:url(#Unnamed_Pattern_4);}.cls-11,.cls-13,.cls-19,.cls-20,.cls-21,.cls-6{mix-blend-mode:overlay;}.cls-7{fill:url(#Degradado_sin_nombre_191-2);}.cls-8{fill:url(#Degradado_sin_nombre_3);}.cls-9{fill:url(#Degradado_sin_nombre_190);}.cls-10,.cls-13{opacity:0.78;}.cls-10{fill:url(#Degradado_sin_nombre_184);}.cls-11{opacity:0.68;fill:url(#Degradado_sin_nombre_1074);}.cls-12,.cls-15,.cls-16,.cls-17,.cls-18{opacity:0.92;}.cls-12{fill:url(#Degradado_sin_nombre_187);}.cls-13{fill:url(#Degradado_sin_nombre_1074-2);}.cls-14,.cls-22{stroke-miterlimit:10;}.cls-14{stroke-width:2.13px;opacity:0.63;stroke:url(#Degradado_sin_nombre_182);}.cls-15{fill:url(#Degradado_sin_nombre_188);}.cls-16{fill:url(#Degradado_sin_nombre_181);}.cls-17{fill:url(#Degradado_sin_nombre_188-2);}.cls-18{fill:url(#Degradado_sin_nombre_187-2);}.cls-19,.cls-20{opacity:0.47;}.cls-19{fill:url(#Unnamed_Pattern_3);}.cls-20{fill:url(#Unnamed_Pattern_3-3);}.cls-22{stroke:#fff;stroke-width:0.91px;}</style><clipPath id="clip-path"><rect class="cls-1" x="-1" y="0.26" width="1921.41" height="1079.74"/></clipPath><linearGradient id="Degradado_sin_nombre_191" x1="1068.54" y1="560.12" x2="1106.86" y2="885.04" gradientUnits="userSpaceOnUse"><stop offset="0" stop-color="#360076"/><stop offset="1" stop-color="#140034"/></linearGradient><pattern id="Unnamed_Pattern_4" data-name="Unnamed Pattern 4" width="7.83" height="10" patternTransform="translate(149.68 88.94) rotate(-179.26) scale(0.93)" patternUnits="userSpaceOnUse" viewBox="0 0 7.83 10"><rect class="cls-1" width="7.83" height="10"/><circle class="cls-2" cx="5.42" cy="11" r="1.5"/><circle class="cls-2" cx="1.5" cy="6" r="1.5"/><circle class="cls-2" cx="5.42" cy="1" r="1.5"/></pattern><linearGradient id="Degradado_sin_nombre_191-2" x1="1166.82" y1="768.68" x2="1236.62" y2="1026.97" xlink:href="#Degradado_sin_nombre_191"/><linearGradient id="Degradado_sin_nombre_3" x1="1334.81" y1="879.74" x2="1438.9" y2="1161.16" gradientUnits="userSpaceOnUse"><stop offset="0" stop-color="#3f297d"/><stop offset="0.2" stop-color="#322065"/><stop offset="0.54" stop-color="#1e1242"/><stop offset="0.82" stop-color="#120a2d"/><stop offset="1" stop-color="#0e0725"/></linearGradient><linearGradient id="Degradado_sin_nombre_190" x1="1247.43" y1="759.39" x2="1424.07" y2="1171.38" gradientUnits="userSpaceOnUse"><stop offset="0" stop-color="#ff1bb0"/><stop offset="0.16" stop-color="#c01b9c"/><stop offset="0.32" stop-color="#831b89"/><stop offset="0.45" stop-color="#5d1b7e"/><stop offset="0.51" stop-color="#4e1b79"/><stop offset="1" stop-color="#4e1b79" stop-opacity="0"/></linearGradient><linearGradient id="Degradado_sin_nombre_184" x1="1337.17" y1="741.4" x2="1442.76" y2="1412.53" gradientUnits="userSpaceOnUse"><stop offset="0" stop-color="#ff1bb0"/><stop offset="0.51" stop-color="#4e1b79"/><stop offset="1" stop-color="#4e1b79" stop-opacity="0"/></linearGradient><linearGradient id="Degradado_sin_nombre_1074" x1="1404.53" y1="785.44" x2="1490.96" y2="1087.94" gradientUnits="userSpaceOnUse"><stop offset="0" stop-color="#fff"/><stop offset="1" stop-color="#fff" stop-opacity="0"/></linearGradient><linearGradient id="Degradado_sin_nombre_187" x1="1453.21" y1="999.48" x2="1783.3" y2="1485.82" gradientUnits="userSpaceOnUse"><stop offset="0" stop-color="#ff1bb0"/><stop offset="0.29" stop-color="#ff1bb0"/><stop offset="0.35" stop-color="#fa1baf" stop-opacity="0.97"/><stop offset="0.44" stop-color="#ed1baa" stop-opacity="0.9"/><stop offset="0.55" stop-color="#d71ba4" stop-opacity="0.77"/><stop offset="0.67" stop-color="#b81b9a" stop-opacity="0.6"/><stop offset="0.8" stop-color="#911b8e" stop-opacity="0.38"/><stop offset="0.94" stop-color="#621b7f" stop-opacity="0.11"/><stop offset="1" stop-color="#4e1b79" stop-opacity="0"/></linearGradient><linearGradient id="Degradado_sin_nombre_1074-2" x1="1434.27" y1="989.51" x2="1540.24" y2="1145.64" xlink:href="#Degradado_sin_nombre_1074"/><linearGradient id="Degradado_sin_nombre_182" x1="1303.5" y1="992.19" x2="1303.5" y2="1287.63" gradientTransform="matrix(0.99, 0.06, -0.07, 1, 290.51, -139.27)" gradientUnits="userSpaceOnUse"><stop offset="0" stop-color="#ff0079" stop-opacity="0.1"/><stop offset="0.35" stop-color="#ff1bb0"/><stop offset="1" stop-color="#ffa6e0"/></linearGradient><linearGradient id="Degradado_sin_nombre_188" x1="1666.61" y1="722.25" x2="1666.61" y2="749.65" gradientTransform="translate(2135.23 -1019.73) rotate(80.81)" gradientUnits="userSpaceOnUse"><stop offset="0" stop-color="#ff9edd"/><stop offset="0.33" stop-color="#f172c9"/><stop offset="1" stop-color="#d71ba1"/></linearGradient><linearGradient id="Degradado_sin_nombre_181" x1="850.55" y1="969.74" x2="850.55" y2="1031.56" gradientUnits="userSpaceOnUse"><stop offset="0" stop-color="#ff1bb0"/><stop offset="0.24" stop-color="#c51b9e"/><stop offset="0.49" stop-color="#921b8e"/><stop offset="0.7" stop-color="#6d1b83"/><stop offset="0.87" stop-color="#561b7c"/><stop offset="0.98" stop-color="#4e1b79"/></linearGradient><linearGradient id="Degradado_sin_nombre_188-2" x1="1297.77" y1="962.48" x2="1297.77" y2="1013.81" gradientTransform="translate(2062.92 -453.36) rotate(80.81)" xlink:href="#Degradado_sin_nombre_188"/><linearGradient id="Degradado_sin_nombre_187-2" x1="1755.73" y1="903.07" x2="1755.73" y2="990.91" xlink:href="#Degradado_sin_nombre_187"/><pattern id="Unnamed_Pattern_3" data-name="Unnamed Pattern 3" width="18.99" height="18.74" patternTransform="translate(326.7 -221.5) scale(1.12)" patternUnits="userSpaceOnUse" viewBox="0 0 18.99 18.74"><rect class="cls-1" width="18.99" height="18.74"/><polygon class="cls-2" points="19 18.74 0 24.99 0 22.99 19 16.74 19 18.74"/><polygon class="cls-2" points="0.01 18.74 -18.99 24.99 -18.99 22.99 0.01 16.74 0.01 18.74"/><polygon class="cls-2" points="19 12.49 0 18.74 0 16.74 19 10.49 19 12.49"/><polygon class="cls-2" points="0.01 12.49 -18.99 18.74 -18.99 16.74 0.01 10.49 0.01 12.49"/><polygon class="cls-2" points="19 6.24 0 12.49 0 10.49 19 4.24 19 6.24"/><polygon class="cls-2" points="0.01 6.24 -18.99 12.49 -18.99 10.49 0.01 4.24 0.01 6.24"/><polygon class="cls-2" points="19 0 0 6.25 0 4.25 19 -2 19 0"/><polygon class="cls-2" points="0.01 0 -18.99 6.25 -18.99 4.25 0.01 -2 0.01 0"/></pattern><pattern id="Unnamed_Pattern_3-3" data-name="Unnamed Pattern 3" width="18.99" height="18.74" patternTransform="translate(276.98 -120.08)" patternUnits="userSpaceOnUse" viewBox="0 0 18.99 18.74"><rect class="cls-1" width="18.99" height="18.74"/><polygon class="cls-2" points="19 18.74 0 24.99 0 22.99 19 16.74 19 18.74"/><polygon class="cls-2" points="0.01 18.74 -18.99 24.99 -18.99 22.99 0.01 16.74 0.01 18.74"/><polygon class="cls-2" points="19 12.49 0 18.74 0 16.74 19 10.49 19 12.49"/><polygon class="cls-2" points="0.01 12.49 -18.99 18.74 -18.99 16.74 0.01 10.49 0.01 12.49"/><polygon class="cls-2" points="19 6.24 0 12.49 0 10.49 19 4.24 19 6.24"/><polygon class="cls-2" points="0.01 6.24 -18.99 12.49 -18.99 10.49 0.01 4.24 0.01 6.24"/><polygon class="cls-2" points="19 0 0 6.25 0 4.25 19 -2 19 0"/><polygon class="cls-2" points="0.01 0 -18.99 6.25 -18.99 4.25 0.01 -2 0.01 0"/></pattern></defs><g class="cls-3"><g id="Layer_1" data-name="Layer 1"><g class="cls-4"><path class="cls-5" d="M178.35,985.64c66.14,74.49,183.78,80.95,277.27,46.56S625.44,941,706.78,883.49c118.3-83.66,201-162.44,345.52-172.76,78.36-5.6,152.57,25.18,227.48,42.89,70.35,16.64,147.4,12.74,211.35-23.34,50-28.22,88.16-73.45,121.23-120.42s62.4-96.85,100.54-139.8c33.2-37.4,74.24-69.81,122.52-82.84,34.06-9.2,70.41-8.1,104.37,1a177.59,177.59,0,0,1,42,16.7c6.79,3.86,37.92,20.69,38,29.38l6.59,681.32H168Z"/><path class="cls-6" d="M1892.1,538.61c-104.55,10.41-204.91,52.75-282.58,117.95-63.22,53.08-113,121.16-186.73,161.08-172.75,93.49-371.46-1.89-554.23,4.19C380,838.09,197.25,1219.18,197.25,1219.18L1985,1355.35s14.45-51.49,35.8-127.61V540.34A574.34,574.34,0,0,0,1892.1,538.61Z"/><path class="cls-7" d="M1833.36,624.11c-79.95,8.64-156.71,43.78-216.11,97.9-48.35,44.06-86.4,100.57-142.81,133.7-132.12,77.6-284.09-1.56-423.87,3.48-373.65,13.49-358.91,235.93-583.5,259.68C329.58,1133.41,1904.38,1302,1904.38,1302s11-42.73,27.38-105.92V625.55A405.06,405.06,0,0,0,1833.36,624.11Z"/><path class="cls-8" d="M1905.77,684c-46-8.54-96.59-2.9-140.56,12.85-67.21,24.08-121.8,68.31-171.65,114.07s-97.2,94.41-156.25,131.11c-70.72,44-157,69-244.06,71-54.84,1.23-110.15-6.42-164.33,1-85.5,11.68-162.27,63.17-196.53,131.8v115H1905.77Z"/><path class="cls-9" d="M1760.05,839.94c-55.13,38.07-139.31,45.06-213,48.62s-151.15,5.21-214.48,34.65c-37.62,17.48-70.26,44.95-104.18,68.16-77.85,53.26-172,43.84-261.43,43-72.78-.65-140.59,15.13-191.58,70.09-33.66,36.28-58.63,81.92-73.88,128.93-.92,2.82-1.85,5.66-2.62,8.53H1935.53V602.4C1833.47,600.24,1850.75,777.31,1760.05,839.94Z"/><path class="cls-10" d="M1931.52,787.42c-3.2-2.81-5.61-21.06-12.54-19.56-34.89,7.59-65.65,38.62-85.19,74.39-13.63,25-42.68,105-135.21,99.41-37.39-2.23-196.79-51.12-232.79-57.09-109.23-18.11-200.24,5.86-273.35,73.76-55.06,51.12-107.34,103.2-161.93,154.17-54.3,50.71-123.53,94.94-200.64,95.11v49.47H1926.4l1.26-80q1.35-86.16,2.71-172.33,1.29-81.71,2.57-163.4.38-23.34.74-46.7C1933.73,790.9,1932.94,788.67,1931.52,787.42Z"/><path class="cls-11" d="M2041.34,1263.22v-413a4.67,4.67,0,0,0-3.55-.79c-39.48,7.59-74.28,38.63-96.39,74.39-15.43,25-48.29,105-153,99.42-42.31-2.23-222.67-51.13-263.4-57.09-123.59-18.11-226.57,5.86-309.29,73.75-62.3,51.14-121.45,103.21-183.22,154.19-32.31,26.66-69.29,51.53-109.78,69.15Z"/><path class="cls-12" d="M1931.76,965.09c-26.59,34.6-75.84,54-121.79,56.83-45.48,2.84-90.72-5.91-136-11-97.12-11-201.35-3.71-283.22,44.44-87.26,51.32-142.75,144.84-241.3,175.55-7.47,2.32-16,4.1-23.55,7.13a42.67,42.67,0,0,0-9.32,5c2.78,2.56,2.79,1.26,5.76,2.26,15.12,5.11,43.67,0,59.64,0h749.73Z"/><path class="cls-13" d="M1931.76,999.57c-27.89,25.77-69.6,40.28-108.89,42.74-45.49,2.84-90.72-5.92-135.95-11-97.12-11-201.35-3.71-283.22,44.44-87.26,51.31-142.75,144.83-241.31,175.54-7.46,2.33-16,4.1-23.55,7.14a41.93,41.93,0,0,0-9.31,5c2.78,2.56,2.79,1.27,5.76,2.27,15.12,5.1,43.67,0,59.64,0h736.83Z"/><path class="cls-14" d="M1932.78,963.11c-29.71,43.46-90.35,64.84-145.31,64.74-50-.09-99-13.11-148.18-22.08-105.62-19.24-220.39-18.58-313.63,29.35-88.19,45.34-151.42,129.58-241.6,167"/><circle class="cls-15" cx="1666.61" cy="744.4" r="19.24" transform="translate(665.55 2270.7) rotate(-80.81)"/><circle class="cls-16" cx="850.55" cy="988.99" r="19.24"/><circle class="cls-17" cx="1297.77" cy="985.1" r="19.24" transform="translate(118.01 2108.85) rotate(-80.81)"/><circle class="cls-18" cx="1755.73" cy="930.41" r="27.35"/><circle class="cls-19" cx="1782.64" cy="414.24" r="62.63"/><circle class="cls-20" cx="763.25" cy="939.63" r="56.15"/><g class="cls-21"><path class="cls-22" d="M-94.06,830.9c9.44,0,9.44,8,18.89,8s9.45-8,18.9-8,9.44,8,18.89,8,9.45-8,18.89-8,9.45,8,18.89,8,9.45-8,18.89-8,9.45,8,18.9,8,9.45-8,18.89-8,9.45,8,18.9,8,9.44-8,18.89-8,9.45,8,18.9,8,9.45-8,18.89-8,9.45,8,18.9,8,9.45-8,18.9-8,9.45,8,18.9,8,9.45-8,18.9-8"/></g><g class="cls-21"><path class="cls-22" d="M-94.06,859c9.44,0,9.44,8,18.89,8s9.45-8,18.9-8,9.44,8,18.89,8,9.45-8,18.89-8S-9,867,.4,867s9.45-8,18.89-8,9.45,8,18.9,8,9.45-8,18.89-8,9.45,8,18.9,8,9.44-8,18.89-8,9.45,8,18.9,8,9.45-8,18.89-8,9.45,8,18.9,8,9.45-8,18.9-8,9.45,8,18.9,8,9.45-8,18.9-8"/></g><path class="cls-2" d="M1853.7,873a4.89,4.89,0,1,0,4.88,4.89A4.89,4.89,0,0,0,1853.7,873Z"/><path class="cls-2" d="M1875.59,882.73a4.89,4.89,0,1,0-4.88-4.88A4.89,4.89,0,0,0,1875.59,882.73Z"/><path class="cls-2" d="M1853.7,897.83a4.88,4.88,0,1,0,4.88,4.88A4.89,4.89,0,0,0,1853.7,897.83Z"/><path class="cls-2" d="M1875.59,897.83a4.88,4.88,0,1,0,4.88,4.88A4.89,4.89,0,0,0,1875.59,897.83Z"/><path class="cls-2" d="M1853.7,922.69a4.88,4.88,0,1,0,4.88,4.88A4.89,4.89,0,0,0,1853.7,922.69Z"/><path class="cls-2" d="M1875.59,922.69a4.88,4.88,0,1,0,4.88,4.88A4.89,4.89,0,0,0,1875.59,922.69Z"/><path class="cls-2" d="M1853.7,947.55a4.89,4.89,0,1,0,4.88,4.89A4.9,4.9,0,0,0,1853.7,947.55Z"/><path class="cls-2" d="M1875.59,947.55a4.89,4.89,0,1,0,4.88,4.89A4.9,4.9,0,0,0,1875.59,947.55Z"/><path class="cls-2" d="M1853.7,972.42a4.88,4.88,0,1,0,4.88,4.88A4.89,4.89,0,0,0,1853.7,972.42Z"/><path class="cls-2" d="M1875.59,972.42a4.88,4.88,0,1,0,4.88,4.88A4.89,4.89,0,0,0,1875.59,972.42Z"/><path class="cls-2" d="M1853.7,997.28a4.88,4.88,0,1,0,4.88,4.88A4.89,4.89,0,0,0,1853.7,997.28Z"/><path class="cls-2" d="M1875.59,997.28a4.88,4.88,0,1,0,4.88,4.88A4.89,4.89,0,0,0,1875.59,997.28Z"/><path class="cls-2" d="M1853.7,1022.14a4.89,4.89,0,1,0,4.88,4.89A4.89,4.89,0,0,0,1853.7,1022.14Z"/><path class="cls-2" d="M1875.59,1022.14a4.89,4.89,0,1,0,4.88,4.89A4.89,4.89,0,0,0,1875.59,1022.14Z"/></g></g></g></svg>