<svg xmlns="http://www.w3.org/2000/svg" xmlns:xlink="http://www.w3.org/1999/xlink" viewBox="0 0 1754 735"><defs><style>.cls-1,.cls-14{fill:none;}.cls-2{fill:#fff;}.cls-3{isolation:isolate;}.cls-4{clip-path:url(#clip-path);}.cls-5{opacity:0.55;fill:url(#Degradado_sin_nombre_191);}.cls-6{opacity:0.59;fill:url(#Unnamed_Pattern_4);}.cls-11,.cls-13,.cls-19,.cls-20,.cls-6{mix-blend-mode:overlay;}.cls-7{fill:url(#Degradado_sin_nombre_191-2);}.cls-8{fill:url(#Degradado_sin_nombre_3);}.cls-9{fill:url(#Degradado_sin_nombre_190);}.cls-10,.cls-13{opacity:0.78;}.cls-10{fill:url(#Degradado_sin_nombre_184);}.cls-11{opacity:0.68;fill:url(#Degradado_sin_nombre_1074);}.cls-12,.cls-15,.cls-16,.cls-17,.cls-18{opacity:0.92;}.cls-12{fill:url(#Degradado_sin_nombre_187);}.cls-13{fill:url(#Degradado_sin_nombre_1074-2);}.cls-14{stroke-miterlimit:10;stroke-width:2.13px;opacity:0.63;stroke:url(#Degradado_sin_nombre_182);}.cls-15{fill:url(#Degradado_sin_nombre_188);}.cls-16{fill:url(#Degradado_sin_nombre_181);}.cls-17{fill:url(#Degradado_sin_nombre_188-2);}.cls-18{fill:url(#Degradado_sin_nombre_187-2);}.cls-19,.cls-20{opacity:0.47;}.cls-19{fill:url(#Unnamed_Pattern_3);}.cls-20{fill:url(#Unnamed_Pattern_3-3);}</style><clipPath id="clip-path"><rect class="cls-1" x="-167" y="-344.74" width="1921.41" height="1079.74"/></clipPath><linearGradient id="Degradado_sin_nombre_191" x1="902.54" y1="215.12" x2="940.86" y2="540.04" gradientUnits="userSpaceOnUse"><stop offset="0" stop-color="#360076"/><stop offset="1" stop-color="#140034"/></linearGradient><pattern id="Unnamed_Pattern_4" data-name="Unnamed Pattern 4" width="7.83" height="10" patternTransform="translate(149.68 88.94) rotate(-179.26) scale(0.93)" patternUnits="userSpaceOnUse" viewBox="0 0 7.83 10"><rect class="cls-1" width="7.83" height="10"/><circle class="cls-2" cx="5.42" cy="11" r="1.5"/><circle class="cls-2" cx="1.5" cy="6" r="1.5"/><circle class="cls-2" cx="5.42" cy="1" r="1.5"/></pattern><linearGradient id="Degradado_sin_nombre_191-2" x1="1000.82" y1="423.68" x2="1070.62" y2="681.97" xlink:href="#Degradado_sin_nombre_191"/><linearGradient id="Degradado_sin_nombre_3" x1="1168.81" y1="534.74" x2="1272.9" y2="816.16" gradientUnits="userSpaceOnUse"><stop offset="0" stop-color="#3f297d"/><stop offset="0.2" stop-color="#322065"/><stop offset="0.54" stop-color="#1e1242"/><stop offset="0.82" stop-color="#120a2d"/><stop offset="1" stop-color="#0e0725"/></linearGradient><linearGradient id="Degradado_sin_nombre_190" x1="1081.43" y1="414.39" x2="1258.07" y2="826.38" gradientUnits="userSpaceOnUse"><stop offset="0" stop-color="#ff1bb0"/><stop offset="0.16" stop-color="#c01b9c"/><stop offset="0.32" stop-color="#831b89"/><stop offset="0.45" stop-color="#5d1b7e"/><stop offset="0.51" stop-color="#4e1b79"/><stop offset="1" stop-color="#4e1b79" stop-opacity="0"/></linearGradient><linearGradient id="Degradado_sin_nombre_184" x1="1171.17" y1="396.4" x2="1276.76" y2="1067.53" gradientUnits="userSpaceOnUse"><stop offset="0" stop-color="#ff1bb0"/><stop offset="0.51" stop-color="#4e1b79"/><stop offset="1" stop-color="#4e1b79" stop-opacity="0"/></linearGradient><linearGradient id="Degradado_sin_nombre_1074" x1="1238.53" y1="440.44" x2="1324.96" y2="742.94" gradientUnits="userSpaceOnUse"><stop offset="0" stop-color="#fff"/><stop offset="1" stop-color="#fff" stop-opacity="0"/></linearGradient><linearGradient id="Degradado_sin_nombre_187" x1="1287.21" y1="654.48" x2="1617.3" y2="1140.82" gradientUnits="userSpaceOnUse"><stop offset="0" stop-color="#ff1bb0"/><stop offset="0.29" stop-color="#ff1bb0"/><stop offset="0.35" stop-color="#fa1baf" stop-opacity="0.97"/><stop offset="0.44" stop-color="#ed1baa" stop-opacity="0.9"/><stop offset="0.55" stop-color="#d71ba4" stop-opacity="0.77"/><stop offset="0.67" stop-color="#b81b9a" stop-opacity="0.6"/><stop offset="0.8" stop-color="#911b8e" stop-opacity="0.38"/><stop offset="0.94" stop-color="#621b7f" stop-opacity="0.11"/><stop offset="1" stop-color="#4e1b79" stop-opacity="0"/></linearGradient><linearGradient id="Degradado_sin_nombre_1074-2" x1="1268.27" y1="644.51" x2="1374.24" y2="800.64" xlink:href="#Degradado_sin_nombre_1074"/><linearGradient id="Degradado_sin_nombre_182" x1="1137.5" y1="647.19" x2="1137.5" y2="942.63" gradientTransform="matrix(0.99, 0.06, -0.07, 1, 266.59, -129.22)" gradientUnits="userSpaceOnUse"><stop offset="0" stop-color="#ff0079" stop-opacity="0.1"/><stop offset="0.35" stop-color="#ff1bb0"/><stop offset="1" stop-color="#ffa6e0"/></linearGradient><linearGradient id="Degradado_sin_nombre_188" x1="1500.61" y1="377.25" x2="1500.61" y2="404.65" gradientTransform="translate(1655.18 -1145.75) rotate(80.81)" gradientUnits="userSpaceOnUse"><stop offset="0" stop-color="#ff9edd"/><stop offset="0.33" stop-color="#f172c9"/><stop offset="1" stop-color="#d71ba1"/></linearGradient><linearGradient id="Degradado_sin_nombre_181" x1="684.55" y1="624.74" x2="684.55" y2="686.56" gradientUnits="userSpaceOnUse"><stop offset="0" stop-color="#ff1bb0"/><stop offset="0.24" stop-color="#c51b9e"/><stop offset="0.49" stop-color="#921b8e"/><stop offset="0.7" stop-color="#6d1b83"/><stop offset="0.87" stop-color="#561b7c"/><stop offset="0.98" stop-color="#4e1b79"/></linearGradient><linearGradient id="Degradado_sin_nombre_188-2" x1="1131.77" y1="617.48" x2="1131.77" y2="668.81" gradientTransform="translate(1582.87 -579.39) rotate(80.81)" xlink:href="#Degradado_sin_nombre_188"/><linearGradient id="Degradado_sin_nombre_187-2" x1="1589.73" y1="558.07" x2="1589.73" y2="645.91" xlink:href="#Degradado_sin_nombre_187"/><pattern id="Unnamed_Pattern_3" data-name="Unnamed Pattern 3" width="18.99" height="18.74" patternTransform="translate(326.7 -221.5) scale(1.12)" patternUnits="userSpaceOnUse" viewBox="0 0 18.99 18.74"><rect class="cls-1" width="18.99" height="18.74"/><polygon class="cls-2" points="19 18.74 0 24.99 0 22.99 19 16.74 19 18.74"/><polygon class="cls-2" points="0.01 18.74 -18.99 24.99 -18.99 22.99 0.01 16.74 0.01 18.74"/><polygon class="cls-2" points="19 12.49 0 18.74 0 16.74 19 10.49 19 12.49"/><polygon class="cls-2" points="0.01 12.49 -18.99 18.74 -18.99 16.74 0.01 10.49 0.01 12.49"/><polygon class="cls-2" points="19 6.24 0 12.49 0 10.49 19 4.24 19 6.24"/><polygon class="cls-2" points="0.01 6.24 -18.99 12.49 -18.99 10.49 0.01 4.24 0.01 6.24"/><polygon class="cls-2" points="19 0 0 6.25 0 4.25 19 -2 19 0"/><polygon class="cls-2" points="0.01 0 -18.99 6.25 -18.99 4.25 0.01 -2 0.01 0"/></pattern><pattern id="Unnamed_Pattern_3-3" data-name="Unnamed Pattern 3" width="18.99" height="18.74" patternTransform="translate(276.98 -120.08)" patternUnits="userSpaceOnUse" viewBox="0 0 18.99 18.74"><rect class="cls-1" width="18.99" height="18.74"/><polygon class="cls-2" points="19 18.74 0 24.99 0 22.99 19 16.74 19 18.74"/><polygon class="cls-2" points="0.01 18.74 -18.99 24.99 -18.99 22.99 0.01 16.74 0.01 18.74"/><polygon class="cls-2" points="19 12.49 0 18.74 0 16.74 19 10.49 19 12.49"/><polygon class="cls-2" points="0.01 12.49 -18.99 18.74 -18.99 16.74 0.01 10.49 0.01 12.49"/><polygon class="cls-2" points="19 6.24 0 12.49 0 10.49 19 4.24 19 6.24"/><polygon class="cls-2" points="0.01 6.24 -18.99 12.49 -18.99 10.49 0.01 4.24 0.01 6.24"/><polygon class="cls-2" points="19 0 0 6.25 0 4.25 19 -2 19 0"/><polygon class="cls-2" points="0.01 0 -18.99 6.25 -18.99 4.25 0.01 -2 0.01 0"/></pattern></defs><g class="cls-3"><g id="Layer_1" data-name="Layer 1"><g class="cls-4"><path class="cls-5" d="M12.35,640.64c66.14,74.49,183.78,81,277.27,46.56S459.44,596,540.78,538.49c118.3-83.66,201-162.44,345.52-172.76,78.36-5.6,152.57,25.18,227.48,42.89,70.35,16.64,147.4,12.74,211.35-23.34,50-28.22,88.16-73.45,121.23-120.42s62.4-96.85,100.54-139.8c33.2-37.4,74.24-69.81,122.52-82.84,34.06-9.2,70.41-8.1,104.37,1a177.59,177.59,0,0,1,42,16.7c6.79,3.86,37.92,20.69,38,29.38l6.59,681.32H2Z"/><path class="cls-6" d="M1726.1,193.61c-104.55,10.41-204.91,52.75-282.58,118-63.22,53.08-113,121.16-186.73,161.08-172.75,93.49-371.46-1.89-554.23,4.19C214,493.09,31.25,874.18,31.25,874.18L1819,1010.35s14.45-51.49,35.8-127.61V195.34A574.34,574.34,0,0,0,1726.1,193.61Z"/><path class="cls-7" d="M1667.36,279.11c-79.95,8.64-156.71,43.78-216.11,97.9-48.35,44.06-86.4,100.57-142.81,133.7-132.12,77.6-284.09-1.56-423.87,3.48-373.65,13.49-358.91,235.93-583.5,259.68C163.58,788.41,1738.38,957,1738.38,957s11-42.73,27.38-105.92V280.55A405.06,405.06,0,0,0,1667.36,279.11Z"/><path class="cls-8" d="M1739.77,339c-46-8.54-96.59-2.9-140.56,12.85-67.21,24.08-121.8,68.31-171.65,114.07s-97.2,94.41-156.25,131.11c-70.72,44-157,69-244.06,71-54.84,1.23-110.15-6.42-164.33,1-85.5,11.68-162.27,63.17-196.53,131.8v115H1739.77Z"/><path class="cls-9" d="M1594.05,494.94c-55.13,38.07-139.31,45.06-213,48.62s-151.15,5.21-214.48,34.65c-37.62,17.48-70.26,44.95-104.18,68.16-77.85,53.26-172,43.84-261.43,43-72.78-.65-140.59,15.13-191.58,70.09-33.66,36.28-58.63,81.92-73.88,128.93-.92,2.82-1.85,5.66-2.62,8.53H1769.53V257.4C1667.47,255.24,1684.75,432.31,1594.05,494.94Z"/><path class="cls-10" d="M1765.52,442.42c-3.2-2.81-5.61-21.06-12.54-19.56-34.89,7.59-65.65,38.62-85.19,74.39-13.63,25-42.68,105-135.21,99.41-37.39-2.23-196.79-51.12-232.79-57.09-109.23-18.11-200.24,5.86-273.35,73.76C971.38,664.45,919.1,716.53,864.51,767.5c-54.3,50.71-123.53,94.94-200.64,95.11v49.47H1760.4l1.26-80q1.35-86.16,2.71-172.33,1.29-81.71,2.57-163.4.38-23.34.74-46.7C1767.73,445.9,1766.94,443.67,1765.52,442.42Z"/><path class="cls-11" d="M1875.34,918.22v-413a4.67,4.67,0,0,0-3.55-.79c-39.48,7.59-74.28,38.63-96.39,74.39-15.43,25-48.29,105-153,99.42-42.31-2.23-222.67-51.13-263.4-57.09C1235.43,603,1132.45,627,1049.73,694.88,987.43,746,928.28,798.09,866.51,849.07c-32.31,26.66-69.29,51.53-109.78,69.15Z"/><path class="cls-12" d="M1765.76,620.09c-26.59,34.6-75.84,54-121.79,56.83-45.48,2.84-90.72-5.91-136-11-97.12-11-201.35-3.71-283.22,44.44-87.26,51.32-142.75,144.84-241.3,175.55C976,888.2,967.47,890,960,893a42.67,42.67,0,0,0-9.32,5c2.78,2.56,2.79,1.26,5.76,2.26,15.12,5.11,43.67,0,59.64,0h749.73Z"/><path class="cls-13" d="M1765.76,654.57c-27.89,25.77-69.6,40.28-108.89,42.74-45.49,2.84-90.72-5.92-135.95-11-97.12-11-201.35-3.71-283.22,44.44C1150.44,782,1095,875.55,996.39,906.26c-7.46,2.33-16,4.1-23.55,7.14a41.93,41.93,0,0,0-9.31,5c2.78,2.56,2.79,1.27,5.76,2.27,15.12,5.1,43.67,0,59.64,0h736.83Z"/><path class="cls-14" d="M1766.78,618.11c-29.71,43.46-90.35,64.84-145.31,64.74-50-.09-99-13.11-148.18-22.08-105.62-19.24-220.39-18.58-313.63,29.35-88.19,45.34-151.42,129.58-241.6,167"/><circle class="cls-15" cx="1500.61" cy="399.4" r="19.24" transform="translate(866.64 1816.94) rotate(-80.81)"/><circle class="cls-16" cx="684.55" cy="643.99" r="19.24"/><circle class="cls-17" cx="1131.77" cy="640.1" r="19.24" transform="translate(319.1 1655.09) rotate(-80.81)"/><circle class="cls-18" cx="1589.73" cy="585.41" r="27.35"/><circle class="cls-19" cx="1616.64" cy="69.24" r="62.63"/><circle class="cls-20" cx="597.25" cy="594.63" r="56.15"/><path class="cls-2" d="M1687.7,528a4.89,4.89,0,1,0,4.88,4.89A4.89,4.89,0,0,0,1687.7,528Z"/><path class="cls-2" d="M1709.59,537.73a4.89,4.89,0,1,0-4.88-4.88A4.89,4.89,0,0,0,1709.59,537.73Z"/><path class="cls-2" d="M1687.7,552.83a4.88,4.88,0,1,0,4.88,4.88A4.89,4.89,0,0,0,1687.7,552.83Z"/><path class="cls-2" d="M1709.59,552.83a4.88,4.88,0,1,0,4.88,4.88A4.89,4.89,0,0,0,1709.59,552.83Z"/><path class="cls-2" d="M1687.7,577.69a4.88,4.88,0,1,0,4.88,4.88A4.89,4.89,0,0,0,1687.7,577.69Z"/><path class="cls-2" d="M1709.59,577.69a4.88,4.88,0,1,0,4.88,4.88A4.89,4.89,0,0,0,1709.59,577.69Z"/><path class="cls-2" d="M1687.7,602.55a4.89,4.89,0,1,0,4.88,4.89A4.9,4.9,0,0,0,1687.7,602.55Z"/><path class="cls-2" d="M1709.59,602.55a4.89,4.89,0,1,0,4.88,4.89A4.9,4.9,0,0,0,1709.59,602.55Z"/><path class="cls-2" d="M1687.7,627.42a4.88,4.88,0,1,0,4.88,4.88A4.89,4.89,0,0,0,1687.7,627.42Z"/><path class="cls-2" d="M1709.59,627.42a4.88,4.88,0,1,0,4.88,4.88A4.89,4.89,0,0,0,1709.59,627.42Z"/><path class="cls-2" d="M1687.7,652.28a4.88,4.88,0,1,0,4.88,4.88A4.89,4.89,0,0,0,1687.7,652.28Z"/><path class="cls-2" d="M1709.59,652.28a4.88,4.88,0,1,0,4.88,4.88A4.89,4.89,0,0,0,1709.59,652.28Z"/><path class="cls-2" d="M1687.7,677.14a4.89,4.89,0,1,0,4.88,4.89A4.89,4.89,0,0,0,1687.7,677.14Z"/><path class="cls-2" d="M1709.59,677.14a4.89,4.89,0,1,0,4.88,4.89A4.89,4.89,0,0,0,1709.59,677.14Z"/></g></g></g></svg>