<svg id="Layer_1" data-name="Layer 1" xmlns="http://www.w3.org/2000/svg" xmlns:xlink="http://www.w3.org/1999/xlink" viewBox="0 0 795 694"><defs><style>.cls-1,.cls-2{fill-rule:evenodd;}.cls-1{fill:url(#linear-gradient);}.cls-2{fill:url(#linear-gradient-2);}.cls-12,.cls-16,.cls-3,.cls-9{fill:#fff;}.cls-4{fill:url(#Degradado_sin_nombre_2);}.cls-5{fill:url(#Degradado_sin_nombre_2-2);}.cls-6{fill:#293777;}.cls-7{fill:url(#Degradado_sin_nombre_2-3);}.cls-8{fill:url(#Degradado_sin_nombre_2-4);}.cls-9{font-size:101.65px;}.cls-12,.cls-16,.cls-9{font-family:Optima-ExtraBlackItalic, Optima Extra Black;font-weight:900;font-style:italic;}.cls-10{letter-spacing:-0.08em;}.cls-11{letter-spacing:-0.02em;}.cls-12{font-size:41.24px;}.cls-13{letter-spacing:-0.02em;}.cls-14{letter-spacing:0.02em;}.cls-15{letter-spacing:-0.03em;}.cls-16{font-size:136.27px;}.cls-17{letter-spacing:-0.06em;}</style><linearGradient id="linear-gradient" x1="124.62" y1="282.31" x2="246.4" y2="282.31" gradientUnits="userSpaceOnUse"><stop offset="0" stop-color="#fdca0b"/><stop offset="1" stop-color="#da3f79"/></linearGradient><linearGradient id="linear-gradient-2" x1="103.25" y1="266.63" x2="120.95" y2="266.63" xlink:href="#linear-gradient"/><radialGradient id="Degradado_sin_nombre_2" cx="162.78" cy="447.86" r="5.67" gradientUnits="userSpaceOnUse"><stop offset="0" stop-color="#140034"/><stop offset="1" stop-color="#140034"/></radialGradient><radialGradient id="Degradado_sin_nombre_2-2" cx="194.24" cy="434.47" r="3.24" xlink:href="#Degradado_sin_nombre_2"/><radialGradient id="Degradado_sin_nombre_2-3" cx="245.63" cy="384.12" r="8.55" xlink:href="#Degradado_sin_nombre_2"/><radialGradient id="Degradado_sin_nombre_2-4" cx="157.22" cy="284.47" r="8.96" xlink:href="#Degradado_sin_nombre_2"/></defs><path class="cls-1" d="M197.07,202c-39.4-.66-72.45,42.07-72.45,42.07h4.84c69.28-65.84,135.83-.62,90.31,71.45-24.37,41.07-57.09,47.08-57.09,47.08,32-5.22,51.23-30.41,51.23-30.41,36.48-29.27,55.75-132-16.84-130.19Z"/><path class="cls-2" d="M103.25,281.49s10-24.71,16.36-29.72l1.34,2s-13.69,17.37-17.7,27.72Z"/><path class="cls-3" d="M153.37,443.63s.08-5.39,1.5-5.94c0,0,6.82-5.06,8.08-7.2,0,0,4.59-7.29,6.41-8.48,0,0,1.81-4.11,2.69-4.35l3.41-7.84s8.07-5.79,9.26-8.47c0,0,1.82-4,2.77-4.11,0,0,1.35-13.31.32-17.82,0,0-.63-8.86-1.34-9.74,0,0-1.82-10.84-4.76-12.83,0,0,12.19-6.33,18.13-11.64,0,0,11.41-9.5,13.94-12.82l2.85,2.45s2,0,1.67,3.8c0,0,5,5.39,5.62,6.49l4,4.2s3.88,1.9,6.89,8.39c0,0,9.74,17.74,10,20.27,0,0,4.67-4.43,8.79-1.9,0,0,3.17,2.54,1.11,5.86l-9.43,12.2a64,64,0,0,1-6.65,2.37s-4.11,1.35-9.57,8.32L204.28,428l-4.12,1.19s-1.67,5.55-1.27,7.76c0,0-.39,4.35-1.58,5.15,0,0-4.68-.47-5.78-2.77l-4.67-6s-9.43,8.8-14.81,17.66c0,0,.55,3.16-.71,4.11,0,0-14.73,3.65-17.34-2.53,0,0-.4-5.07-1.11-5.07,0,0-.32-3.8.48-3.8Z"/><path class="cls-4" d="M156.3,450.21v-4.84s1.57-3,4.35-2.05c0,0,7.37.87,7.53,3.56l.78,2.85a1.63,1.63,0,0,1-1,2.53s-7.59,1.51-11.71-2.05Z"/><path class="cls-5" d="M194.07,437.14l-2.46-4s-.63-1.43,1.19-1.35a29.22,29.22,0,0,1,3.95-.95s.57,4.52-.07,7.13a2,2,0,0,1-2.61-.79Z"/><path class="cls-6" d="M200.64,386.31s3.32-2.69,9.74-1.9c0,0,5.85,1.42,6.65,2.92,0,0-7.21-3.25-11.72-1.9l1.82.24a49.3,49.3,0,0,0-6.49.64Z"/><path class="cls-7" d="M236.82,392.4s3.65-5,5.71-5c0,0,6.4-2.14,2.45-8.87,0,0,5.46-4.66,8.55-1.73,0,0,1.11,1.81.87,2.92,0,0-4,4.6-6.49,6.26,0,0-5.93,5.07-7.28,5a6,6,0,0,1-3.81,1.42Z"/><path class="cls-3" d="M139.2,284s-4.67-7.21-4.28-10.92c0,0-1.35-2.62,3.16-8.95,0,0,6-9.18,16.87-4,0,0,3.25.87,6.73,8,0,0,4.59,2.38,5.23,2.3,0,0,.86,2-3.8,4.11l1.34,3.25s3.56-.71,3.64-1.27l.32,1.58h0l.1.5.06,0,.39,1.83s5.7-5.48,9.27-9.19a60.48,60.48,0,0,1,2.93-8.32s-1.67-9.1-1.27-9.42c0,0,3.64-3.17,8.08-2.46,0,0-1.19-4.42-3.25-4.11v-1s-6.49.88-5.94,6.18c0,0-2.45,1.19-5.46-1.19l-2-5.46s-2.05-1.44-4.12,1.73c0,0-22.32,4.68-38.95,7.21,0,0-23.84,3.65-31.52.8,0,0-3-5.39-.39-8.4l4.75.08s-4.91.95-5.38,2.38c0,0,23.27,1.82,34.12-2,0,0,33.26-5.86,37.37-6.89,0,0-.54-1.5-1.66-1.11,0,0-32.15,5.38-38.41,5.15,0,0,33.19-5.79,37.94-5.71,0,0,1.35-.78,3.8,1.75a4.73,4.73,0,0,0,1.42-1.19s-.16,2.85,1.27,2.85c0,0,.08,1.58.63,1.58l2.14,3.09s9.58-3.17,11.4-3.88c0,0-.15-2-.47-2.06l-11.49,3.72-2.61-4.75,2.53,3.56s7.92-2.37,11.72-3.24l-1.18-4.6s1.1,2.78,1.42-.86l.56,2.37s2.69-.24.79,2.61a55.06,55.06,0,0,0,1.11,5.71l5.06,2.45-2.53,1.58,2.93.09s-4,2.61-2.85,4.51a4.66,4.66,0,0,0,5.54.55s1.51,1.42,2.06,1.42c0,0,.55,1.44-1.27,2.3l-3.48,15.12s-.87,4.05-2.22,5.08L182,296.2s13.22,10.93,14.65,14.1l9.74,15.12-.08,1.74,2.53,1.19s-12.19,17.26-28.66,26.6c0,0-2-3.49-.32-8.71,0,0-2.29-6.33-1.74-6.33,0,0-1-3.33-2.54-4.28L159.07,320.9l-11.8-11s-1.75-1.34-1.59-9.89c0,0-3.63-1-2.53-4,0,0-2.53-4.12-1.9-4.83,0,0,3,0,3.41-.71,0,0,2.46,2.94,4.51,2.77,0,0-4.91-4-5.62-3.49,0,0-3.48-1.58-3.88-3,0,0,3.25,3.09,2.61,1l-2.3-1.51s-.24-2.14-.78-2.22Z"/><path class="cls-3" d="M171.92,233.21,183.79,232v1.12s-2.19-1.12-3,.89c0,0-2.07-2.43-3.2.06,0,0-2.79-2.13-3.57.84a14.35,14.35,0,0,0-2.13-1.73Z"/><path class="cls-3" d="M186.05,232.8s.65-1.55,3-.71c0,0,8.14-.9,9.44,1.84a14.85,14.85,0,0,1,1.25,4l4,.77-.48,4.57-2.08,1.07s-.41,4.69-.53,5.76c0,0-1.31-7.07-3.92-5.41,0,0-2.26-.17-3.09-1.3l-3.15-1.61,3.15.42s3.56.65,1.43-2.08c0,0,4.93.77,2.73-1.24l1.19-.42s-.89-4.93-1.9-5.29c0,0-1.25.24-1,1.25,0,0-1.67-3-3.27-.65,0,0-1.31-1.72-2.91-.89a4.59,4.59,0,0,0-3.86-.06Z"/><path class="cls-6" d="M140.77,282.66s-.36,2.85.89,3.8c0,0,6.89,5.94,8.85,6.47a30.09,30.09,0,0,0,17.88-5s-.3-5-.54-5.11l1.66-1.31v-.77l-1.84,1.37-1-2.5,2-1.13-.29-.77a73.83,73.83,0,0,1-18,6.3l-5.05,1.18s-2.73.72-2.91-3.74l-.29.24s-.3,4.33,3.14,4.33c0,0,18.35-4.63,20.73-6,0,0,1,.77,1.37,7.78,0,0-14.38,7.3-18.77,2.91l-6.18-4.52s-1.84-2.37-1.6-3.5Z"/><polygon class="cls-6" points="151.49 292.1 154.28 283.9 155.23 283.49 152.5 292.04 151.49 292.1 151.49 292.1"/><path class="cls-6" d="M161.76,290s-.65-7.24-1.78-8.25l1.19-.18s1.07,6.06,1.42,8.19l-.83.24Z"/><path class="cls-8" d="M145.13,286.34s.12,3.5,10.57,1.13c0,0,9.92-1.84,13.6-6.12l-.12-.71a22.23,22.23,0,0,1-12.64,5.46s-7.31,2.44-11.41.24Z"/><text class="cls-9" transform="translate(287.73 294.41)">WH<tspan class="cls-10" x="186.33" y="0">A</tspan><tspan x="252.1" y="0">T</tspan><tspan class="cls-11" x="314.21" y="0"> </tspan><tspan x="341.76" y="0">A</tspan></text><text class="cls-12" transform="translate(287.73 457.56)">INDIA KA<tspan class="cls-13" x="200.85" y="0"> </tspan><tspan class="cls-14" x="212.44" y="0">T</tspan><tspan class="cls-15" x="238.26" y="0">Y</tspan><tspan x="265.28" y="0">OHAR!</tspan></text><text class="cls-16" transform="translate(287.73 411.24)">SH<tspan class="cls-17" x="194.32" y="0">O</tspan><tspan x="306.61" y="0">T</tspan></text></svg>