<svg id="Layer_1" data-name="Layer 1" xmlns="http://www.w3.org/2000/svg" xmlns:xlink="http://www.w3.org/1999/xlink" viewBox="0 0 872 389"><defs><style>.cls-1,.cls-2{fill-rule:evenodd;}.cls-1{fill:url(#linear-gradient);}.cls-2{fill:url(#linear-gradient-2);}.cls-13,.cls-17,.cls-3,.cls-9{fill:#fff;}.cls-4{fill:url(#Degradado_sin_nombre_2);}.cls-5{fill:url(#Degradado_sin_nombre_2-2);}.cls-6{fill:#293777;}.cls-7{fill:url(#Degradado_sin_nombre_2-3);}.cls-8{fill:url(#Degradado_sin_nombre_2-4);}.cls-9{font-size:142.11px;}.cls-13,.cls-17,.cls-9{font-family:Optima-ExtraBlackItalic, Optima Extra Black;font-weight:900;font-style:italic;}.cls-10{letter-spacing:-0.07em;}.cls-11{letter-spacing:0em;}.cls-12{letter-spacing:-0.02em;}.cls-13{font-size:57.66px;}.cls-14{letter-spacing:-0.01em;}.cls-15{letter-spacing:0.01em;}.cls-16{letter-spacing:-0.03em;}.cls-17{font-size:190.51px;}.cls-18{letter-spacing:-0.06em;}.cls-19{letter-spacing:0em;}</style><linearGradient id="linear-gradient" x1="56.29" y1="130.22" x2="226.54" y2="130.22" gradientUnits="userSpaceOnUse"><stop offset="0" stop-color="#fdca0b"/><stop offset="1" stop-color="#da3f79"/></linearGradient><linearGradient id="linear-gradient-2" x1="26.42" y1="108.3" x2="51.16" y2="108.3" xlink:href="#linear-gradient"/><radialGradient id="Degradado_sin_nombre_2" cx="109.64" cy="361.66" r="7.93" gradientUnits="userSpaceOnUse"><stop offset="0" stop-color="#140034"/><stop offset="1" stop-color="#140034"/></radialGradient><radialGradient id="Degradado_sin_nombre_2-2" cx="153.63" cy="342.94" r="4.52" xlink:href="#Degradado_sin_nombre_2"/><radialGradient id="Degradado_sin_nombre_2-3" cx="225.47" cy="272.56" r="11.95" xlink:href="#Degradado_sin_nombre_2"/><radialGradient id="Degradado_sin_nombre_2-4" cx="101.87" cy="133.24" r="12.53" xlink:href="#Degradado_sin_nombre_2"/></defs><path class="cls-1" d="M157.58,18C102.5,17.05,56.29,76.8,56.29,76.8h6.77c96.86-92.06,189.89-.88,126.26,99.88-34.08,57.41-79.82,65.81-79.82,65.81C154.23,235.2,181.12,200,181.12,200c51-40.91,77.94-184.59-23.54-182Z"/><path class="cls-2" d="M26.42,129.07s14-34.54,22.87-41.54l1.87,2.8S32,114.6,26.42,129.07Z"/><path class="cls-3" d="M96.48,355.75s.12-7.53,2.11-8.3c0,0,9.53-7.08,11.29-10.07,0,0,6.42-10.19,9-11.85,0,0,2.53-5.75,3.75-6.08l4.77-11s11.29-8.09,12.95-11.85c0,0,2.54-5.52,3.87-5.75,0,0,1.89-18.6.44-24.9,0,0-.88-12.4-1.87-13.62,0,0-2.55-15.16-6.65-17.93,0,0,17-8.86,25.35-16.28,0,0,15.95-13.28,19.49-17.93l4,3.43s2.77,0,2.33,5.31c0,0,7,7.53,7.85,9.08l5.53,5.86s5.42,2.66,9.63,11.74c0,0,13.62,24.8,13.95,28.34,0,0,6.53-6.19,12.29-2.65,0,0,4.44,3.54,1.56,8.18l-13.18,17.05s-7.31,3-9.3,3.33c0,0-5.75,1.88-13.39,11.62l-34.54,32.31-5.76,1.67s-2.33,7.76-1.77,10.85c0,0-.55,6.08-2.21,7.19,0,0-6.54-.65-8.09-3.87l-6.52-8.42s-13.18,12.3-20.71,24.69c0,0,.77,4.42-1,5.75,0,0-20.59,5.1-24.25-3.54,0,0-.55-7.08-1.54-7.08,0,0-.45-5.32.66-5.32Z"/><path class="cls-4" d="M100.58,365v-6.76s2.2-4.2,6.08-2.87c0,0,10.31,1.22,10.53,5l1.1,4a2.29,2.29,0,0,1-1.33,3.54s-10.62,2.11-16.38-2.87Z"/><path class="cls-5" d="M153.38,346.68,150,341s-.88-2,1.66-1.89a40.75,40.75,0,0,1,5.53-1.33s.79,6.31-.1,10a2.82,2.82,0,0,1-3.66-1.1Z"/><path class="cls-6" d="M162.57,275.62s4.65-3.76,13.61-2.66c0,0,8.19,2,9.3,4.09,0,0-10.08-4.55-16.39-2.66l2.56.33s-7.42.35-9.08.9Z"/><path class="cls-7" d="M213.16,284.14s5.09-7,8-7c0,0,9-3,3.42-12.4,0,0,7.64-6.52,12-2.43,0,0,1.56,2.53,1.22,4.09,0,0-5.64,6.42-9.08,8.75,0,0-8.29,7.09-10.18,7a8.32,8.32,0,0,1-5.31,2Z"/><path class="cls-3" d="M76.67,132.59s-6.53-10.08-6-15.28c0,0-1.89-3.65,4.42-12.5,0,0,8.41-12.84,23.58-5.65,0,0,4.55,1.22,9.41,11.18,0,0,6.43,3.33,7.31,3.22,0,0,1.21,2.76-5.31,5.75l1.88,4.54s5-1,5.09-1.77l.45,2.21h0l.15.71.08,0,.55,2.56s8-7.65,13-12.85c0,0,2.32-8.3,4.1-11.63,0,0-2.34-12.72-1.78-13.16,0,0,5.09-4.44,11.29-3.44,0,0-1.66-6.18-4.53-5.75V79.35S131.24,80.58,132,88c0,0-3.44,1.66-7.64-1.66l-2.77-7.64s-2.87-2-5.75,2.43c0,0-31.22,6.54-54.47,10.07,0,0-33.33,5.1-44.06,1.11,0,0-4.2-7.53-.55-11.73l6.64.11S16.56,82,15.9,84c0,0,32.54,2.54,47.71-2.77,0,0,46.5-8.19,52.25-9.63,0,0-.77-2.1-2.33-1.55,0,0-44.95,7.53-53.69,7.2,0,0,46.39-8.09,53-8,0,0,1.89-1.1,5.31,2.44a6.67,6.67,0,0,0,2-1.67s-.22,4,1.77,4c0,0,.12,2.21.89,2.21l3,4.32s13.4-4.43,15.94-5.43c0,0-.22-2.76-.66-2.87L125,77.46l-3.65-6.64,3.54,5s11.07-3.32,16.38-4.53l-1.66-6.43s1.55,3.89,2-1.21l.77,3.32s3.76-.33,1.1,3.65a75.59,75.59,0,0,0,1.56,8L152.16,82l-3.54,2.21,4.1.11s-5.53,3.66-4,6.31a6.54,6.54,0,0,0,7.75.77s2.11,2,2.88,2c0,0,.77,2-1.77,3.22l-4.87,21.14s-1.23,5.66-3.1,7.09l-13.07,24.79S155,164.93,157,169.35l13.61,21.14-.11,2.44,3.54,1.66S157,218.72,134,231.78c0,0-2.77-4.88-.45-12.18,0,0-3.19-8.86-2.43-8.86,0,0-1.34-4.64-3.55-6l-23.13-20.59L88,168.79s-2.45-1.88-2.22-13.84c0,0-5.08-1.44-3.54-5.64,0,0-3.54-5.76-2.65-6.76,0,0,4.21,0,4.76-1,0,0,3.43,4.11,6.31,3.88,0,0-6.87-5.54-7.87-4.88,0,0-4.85-2.21-5.42-4.2,0,0,4.55,4.33,3.66,1.44l-3.22-2.11s-.33-3-1.1-3.1Z"/><path class="cls-3" d="M122.42,61.59,139,59.93V61.5s-3.07-1.57-4.15,1.25c0,0-2.91-3.4-4.48.08,0,0-3.91-3-5,1.16a19.82,19.82,0,0,0-3-2.4Z"/><path class="cls-3" d="M142.17,61s.92-2.16,4.16-1c0,0,11.37-1.25,13.2,2.57,0,0,1.74,3.82,1.74,5.57l5.65,1.07-.67,6.4-2.9,1.49s-.59,6.56-.75,8c0,0-1.83-9.88-5.48-7.55,0,0-3.16-.25-4.32-1.83l-4.4-2.24,4.4.58s5,.92,2-2.9c0,0,6.89,1.08,3.82-1.75l1.66-.58S159,62,157.62,61.5c0,0-1.75.34-1.41,1.75,0,0-2.33-4.24-4.57-.92,0,0-1.83-2.4-4.07-1.24a6.42,6.42,0,0,0-5.4-.08Z"/><path class="cls-6" d="M78.87,130.71s-.49,4,1.25,5.32c0,0,9.63,8.3,12.37,9,0,0,13.45,1.08,25-7,0,0-.42-7-.75-7.14l2.33-1.83V128l-2.58,1.91-1.41-3.48,2.74-1.58-.41-1.08a103.16,103.16,0,0,1-25.16,8.8l-7.06,1.66s-3.82,1-4.06-5.23l-.42.33s-.41,6.06,4.4,6.06c0,0,25.65-6.47,29-8.38,0,0,1.41,1.08,1.9,10.87,0,0-20.09,10.21-26.23,4.07l-8.63-6.31s-2.58-3.32-2.25-4.9Z"/><polygon class="cls-6" points="93.86 143.91 97.76 132.45 99.09 131.87 95.27 143.83 93.86 143.91 93.86 143.91"/><path class="cls-6" d="M108.22,141s-.91-10.12-2.49-11.53l1.66-.25s1.49,8.46,2,11.45l-1.16.33Z"/><path class="cls-8" d="M85,135.86s.17,4.9,14.78,1.58c0,0,13.86-2.58,19-8.56l-.16-1a31.18,31.18,0,0,1-17.69,7.64s-10.21,3.4-15.94.33Z"/><text class="cls-9" transform="translate(284.33 147.14)">WH<tspan class="cls-10" x="260.49" y="0">A</tspan><tspan class="cls-11" x="352.44" y="0">T</tspan><tspan class="cls-12" x="439.27" y="0"> </tspan><tspan x="477.78" y="0">A</tspan></text><text class="cls-13" transform="translate(284.33 375.22)">INDIA KA<tspan class="cls-14" x="280.8" y="0"> </tspan><tspan class="cls-15" x="297" y="0">T</tspan><tspan class="cls-16" x="333.09" y="0">Y</tspan><tspan x="370.86" y="0">OHAR!</tspan></text><text class="cls-17" transform="translate(284.33 310.47)">SH<tspan class="cls-18" x="271.66" y="0">O</tspan><tspan class="cls-19" x="428.64" y="0">T</tspan></text></svg>